<svg width="154" height="84" viewBox="0 0 154 84" fill="none" xmlns="http://www.w3.org/2000/svg">
<path d="M12.88 29.22C12.88 29.22 13.5766 27.5483 15.6483 27.8233C17.72 28.0983 31.76 30.4783 38.4416 33.58C45.125 36.68 52.6566 40.345 57.3716 45.8867C58.6216 47.3583 58.1133 48.435 58.1133 48.435L56.3866 60.8317C56.3866 60.8317 55.8866 63.3133 53.4916 63.975L4.17829 77.565C4.17829 77.565 1.66663 78.1383 1.66663 75.5533V62.61C1.66663 62.61 1.91996 61.055 2.53496 59.235C3.14829 57.41 12.88 29.22 12.88 29.22Z" fill="#F4900C"/>
<path d="M51.015 58.245C43.6017 51.1483 26 42.88 12.9584 41.6367C12.7765 41.6204 12.5944 41.6656 12.4412 41.765C12.2881 41.8644 12.1726 42.0123 12.1134 42.185C12.1134 42.185 1.65002 73.2017 1.65002 73.715C1.65002 73.965 1.76669 74.2033 1.96169 74.3583C2.05997 74.433 2.1736 74.4848 2.29437 74.5102C2.41513 74.5356 2.54003 74.5338 2.66002 74.505L51.6917 60.98C52.0017 60.9 52.1567 60.7233 52.2117 60.4067C52.3134 59.8533 52.085 59.2667 51.015 58.245Z" fill="#A0041E"/>
<path d="M52.205 60.465L1.66663 74.0483V62.195C1.66663 62.195 10.5516 42.2367 12.3283 30.1033C40.2383 34.1333 53.5816 48.63 53.5816 48.63L52.205 60.465Z" fill="#A0041E"/>
<path d="M13.6468 66.5533C13.6472 67.1165 13.5366 67.6743 13.3212 68.1947C13.1058 68.7151 12.7899 69.1879 12.3916 69.586C11.9933 69.9842 11.5204 70.2999 10.9999 70.5151C10.4794 70.7302 9.92162 70.8407 9.35842 70.84C8.22131 70.84 7.13076 70.3883 6.3267 69.5842C5.52264 68.7802 5.07092 67.6896 5.07092 66.5525C5.07092 65.4154 5.52264 64.3248 6.3267 63.5208C7.13076 62.7167 8.22131 62.265 9.35842 62.265C9.92176 62.2643 10.4797 62.3748 11.0003 62.5901C11.5209 62.8054 11.9939 63.1212 12.3922 63.5196C12.7905 63.9179 13.1064 64.3909 13.3217 64.9115C13.5369 65.4321 13.6474 65.99 13.6468 66.5533ZM21.9801 59.8867C21.9805 60.4499 21.8699 61.0076 21.6545 61.528C21.4391 62.0484 21.1233 62.5212 20.7249 62.9194C20.3266 63.3175 19.8537 63.6332 19.3332 63.8484C18.8128 64.0636 18.255 64.174 17.6918 64.1733C17.1287 64.1733 16.5712 64.0624 16.051 63.847C15.5308 63.6315 15.0582 63.3157 14.66 62.9176C14.2619 62.5194 13.9461 62.0468 13.7306 61.5266C13.5152 61.0064 13.4043 60.4489 13.4043 59.8858C13.4043 59.3228 13.5152 58.7653 13.7306 58.2451C13.9461 57.7249 14.2619 57.2522 14.66 56.8541C15.0582 56.456 15.5308 56.1402 16.051 55.9247C16.5712 55.7092 17.1287 55.5983 17.6918 55.5983C18.2551 55.5977 18.813 55.7081 19.3336 55.9234C19.8542 56.1387 20.3272 56.4545 20.7255 56.8529C21.1239 57.2512 21.4397 57.7242 21.655 58.2448C21.8703 58.7654 21.9807 59.3233 21.9801 59.8867ZM31.9801 61.5533C31.9805 62.1165 31.8699 62.6743 31.6545 63.1947C31.4391 63.7151 31.1233 64.1879 30.7249 64.586C30.3266 64.9842 29.8537 65.2999 29.3332 65.5151C28.8128 65.7302 28.255 65.8407 27.6918 65.84C26.5546 65.84 25.4641 65.3883 24.66 64.5842C23.856 63.7802 23.4043 62.6896 23.4043 61.5525C23.4043 60.4154 23.856 59.3248 24.66 58.5208C25.4641 57.7167 26.5546 57.265 27.6918 57.265C28.2551 57.2643 28.813 57.3748 29.3336 57.5901C29.8542 57.8054 30.3272 58.1212 30.7255 58.5196C31.1239 58.9179 31.4397 59.3909 31.655 59.9115C31.8703 60.4321 31.9807 60.99 31.9801 61.5533ZM40.3134 54.8867C40.3139 55.4499 40.2032 56.0076 39.9879 56.528C39.7725 57.0484 39.4566 57.5212 39.0583 57.9194C38.66 58.3175 38.187 58.6332 37.6666 58.8484C37.1461 59.0636 36.5883 59.174 36.0251 59.1733C34.888 59.1733 33.7974 58.7216 32.9934 57.9176C32.1893 57.1135 31.7376 56.0229 31.7376 54.8858C31.7376 53.7487 32.1893 52.6582 32.9934 51.8541C33.7974 51.05 34.888 50.5983 36.0251 50.5983C36.5884 50.5977 37.1464 50.7081 37.6669 50.9234C38.1875 51.1387 38.6605 51.4545 39.0589 51.8529C39.4572 52.2512 39.7731 52.7242 39.9883 53.2448C40.2036 53.7654 40.3141 54.3233 40.3134 54.8867ZM50.3134 56.5533C50.3139 57.1165 50.2032 57.6743 49.9879 58.1947C49.7725 58.7151 49.4566 59.1879 49.0583 59.586C48.66 59.9842 48.187 60.2999 47.6666 60.5151C47.1461 60.7302 46.5883 60.8407 46.0251 60.84C44.888 60.84 43.7974 60.3883 42.9934 59.5842C42.1893 58.7802 41.7376 57.6896 41.7376 56.5525C41.7376 55.4154 42.1893 54.3248 42.9934 53.5208C43.7974 52.7167 44.888 52.265 46.0251 52.265C46.5884 52.2643 47.1464 52.3748 47.6669 52.5901C48.1875 52.8054 48.6605 53.1212 49.0589 53.5196C49.4572 53.9179 49.7731 54.3909 49.9883 54.9115C50.2036 55.4321 50.3141 55.99 50.3134 56.5533Z" fill="#BE1931"/>
<path d="M53.4933 46.4967C46.0783 39.4 26.0017 31.2133 12.9583 29.97C12.7765 29.9538 12.5944 29.999 12.4412 30.0984C12.2881 30.1978 12.1726 30.3456 12.1133 30.5183C12.1133 30.5183 3.81001 53.5633 1.79168 59.8867C1.50001 60.8 1.65001 61.9833 1.65001 62.0483C1.65001 62.2983 1.76668 62.5367 1.96168 62.6917C2.05996 62.7663 2.17359 62.8182 2.29435 62.8435C2.41512 62.8689 2.54002 62.8671 2.66001 62.8383L53.9883 49.9267C54.1397 49.8872 54.2765 49.8052 54.3826 49.6902C54.4887 49.5753 54.5595 49.4323 54.5867 49.2783C54.6867 48.7267 54.5617 47.52 53.4933 46.4967Z" fill="#F4900C"/>
<path d="M53.4934 46.4967C46.0784 39.4 26.0017 31.2133 12.9584 29.97C12.7765 29.9538 12.5944 29.999 12.4412 30.0984C12.2881 30.1978 12.1726 30.3456 12.1134 30.5183C12.1134 30.5183 1.65002 59.8683 1.65002 60.3817C1.65002 60.6317 1.76669 60.87 1.96169 61.025C2.05997 61.0996 2.1736 61.1515 2.29437 61.1769C2.41513 61.2022 2.54003 61.2004 2.66002 61.1717L52.9834 48.2733C53.1347 48.2339 53.2715 48.1518 53.3776 48.0369C53.4837 47.922 53.5545 47.779 53.5817 47.625C53.6817 47.0733 54.5617 47.52 53.4934 46.4967Z" fill="#F4900C"/>
<path d="M16.0833 57.7317L13.0283 53.6383L20.4583 52.76L22.8516 55.9967L32.1583 53.6117L30.6216 51.5583L37.6516 50.7267L38.6033 52.0133L47.8883 49.5867L47.8399 49.5217L48.3816 49.4583L54.4033 47.885C54.2125 47.358 53.9009 46.883 53.4933 46.4983C52.4733 45.5217 51.1933 44.525 49.7449 43.5267L43.7966 44.1183L40.5616 39.7933L42.9216 39.515C37.1966 36.58 30.3699 33.9133 23.8966 32.1233L26.2916 35.3633L19.0449 36.0833L16.2616 32.36L22.1399 31.665C18.8883 30.8383 15.7566 30.2367 12.9583 29.97C12.7764 29.9538 12.5943 29.999 12.4411 30.0984C12.288 30.1978 12.1725 30.3456 12.1133 30.5183C12.1133 30.5183 9.81992 36.495 7.49992 43.42L13.2549 43.02L16.1033 46.8717L8.53825 47.6233L6.83492 45.3917C5.63325 48.9817 4.22159 52.6617 3.25159 55.5983L6.79159 60.1133L16.0833 57.7317ZM30.4499 40.9867L33.5199 45.1383L26.3516 45.8517L23.3416 41.8267L30.4499 40.9867Z" fill="#FFCC4D"/>
<path d="M18.1033 53.145C19.4483 52.7817 22.1366 51.0833 24.7916 50.7183C27.4483 50.3533 30.6766 51.7467 31.6383 51.6333L35.4933 51.1783C36.3533 51.0767 40.2083 48.9483 42.4483 48.635C44.6883 48.3217 47.69 49.905 48.7666 49.6083C48.7666 49.6083 49.9633 49.9467 48.7666 50.0983C47.57 50.25 44.4316 49.0233 42.69 49.3117C40.1866 49.7283 38.4016 51.165 35.4933 51.6333C33.74 51.915 32.5066 52.145 31.4583 52.2283C29.5183 52.385 27.125 50.93 24.6766 51.3467C22.2283 51.7633 20.885 53.4183 18.1016 53.6867C16.4533 53.8467 17.075 53.4233 18.1033 53.145ZM10.9033 58.08C12.8933 57.6167 15.1866 56.8433 16.0833 57.73L11.5983 59.45L6.79164 60.1117C6.78997 60.1133 6.94497 59.0017 10.9033 58.08ZM27.3266 53.8267C29.8083 53.2333 31.4333 53.1183 32.1566 53.6117L27.6233 55.32L22.85 55.9967C22.8516 55.9967 23.2633 54.7983 27.3266 53.8267Z" fill="#F4900C"/>
<path d="M42.8468 49.9717C44.6501 49.4767 46.9784 49.2417 47.5684 49.3817C47.5684 49.3817 52.3301 48.1467 54.2201 47.93C54.2201 47.93 49.8801 49.415 48.5334 49.7633C47.1868 50.11 38.6984 52.4567 38.6018 52.0133C38.5051 51.57 40.0701 50.7367 42.8468 49.9717Z" fill="#F4900C"/>
<path d="M3.2501 55.5983C3.2501 55.5983 3.1251 53.6033 4.51344 50C5.90177 46.3967 6.51344 44.9717 6.83344 45.3917C7.15344 45.8117 5.90177 50.39 5.4151 51.5C4.92844 52.61 4.15344 54.9 3.78344 55.3533C3.4151 55.8083 3.2501 55.5983 3.2501 55.5983ZM7.5001 43.4183C7.5001 43.4183 7.60344 40.875 8.22844 39.1033C8.85344 37.3317 9.9751 36.3 10.1251 35.885C10.2751 35.47 10.2418 33.3733 10.6584 32.4017C11.0751 31.43 11.9218 29.55 12.9568 29.9683C13.9918 30.3867 10.6318 37.16 10.2301 38.5133C9.82677 39.8683 7.5001 43.4183 7.5001 43.4183Z" fill="#FFCC4D"/>
<path d="M11.4367 43.145C12.7817 42.7817 15.4683 41.0833 18.125 40.7183C20.7817 40.3533 24.01 41.7467 24.9717 41.6333L28.8267 41.1783C29.6867 41.0767 33.5417 38.9483 35.7817 38.635C38.0217 38.3217 41.0233 39.905 42.1 39.6083C42.1 39.6083 43.2967 39.9467 42.1 40.0983C40.9033 40.25 37.765 39.0233 36.0233 39.3117C33.52 39.7283 31.735 41.1667 28.8267 41.6333C27.0733 41.915 25.84 42.145 24.7917 42.2283C22.8517 42.385 20.4583 40.93 18.01 41.3467C15.5617 41.7633 14.2183 43.4183 11.435 43.6867C9.78666 43.8467 10.4083 43.4233 11.4367 43.145ZM14.7467 53.4333C13.4817 53.5833 11.7317 52.1417 8.57499 52.705C5.41666 53.27 3.24999 55.5983 3.24999 55.5983L3.45333 56.5533C3.45333 56.5533 2.65333 55.9917 3.76499 55.6467C4.87666 55.3017 6.04166 53.5933 8.74999 53.3017C11.4583 53.01 12.3433 53.9483 14.1667 54C15.99 54.0517 14.7467 53.4333 14.7467 53.4333ZM46.6667 49.3917L49.2983 49.545L50 49L49.5317 50.4833L47.3433 51.1583L46.6667 49.3917ZM11.875 31.865C14.3233 31.1883 15.9183 32.4017 17.69 32.1917C19.4617 31.9817 19.4867 32.47 18.125 32.75C16.7633 33.03 13.3583 31.8417 11.9483 32.3017C10.5383 32.7617 10.3067 34.2183 10.3067 34.2183L10.54 32.7617C10.5383 32.7617 10.2683 32.3083 11.875 31.865ZM15.16 46.9633C18.5933 46.4133 18.8333 45.5517 21.4067 45.04C23.75 44.5733 25.2083 45.6783 26.525 45.6783C28.665 45.6783 28.0117 44.3717 27.2917 44.6783C25.7817 45.3217 22.735 43.4917 19.74 44.6783C18.2117 45.2833 17.5083 46.12 15.16 46.415C12.8133 46.7083 13.93 47.1617 15.16 46.9633ZM32.4467 45.245C33.88 45.1033 36.0933 43.775 38.28 43.42C40.4667 43.0633 42.425 44.2533 43.795 44.1183C45.165 43.9833 45.445 43.245 44.375 43.3533C43.305 43.4617 40.5733 42.2833 37.9167 42.8033C35.26 43.3233 34.2183 44.4183 32.4467 44.6783C30.6767 44.9367 31.3733 45.3517 32.4467 45.245ZM5.43666 47.6533C6.62833 47.34 7.86833 48.0467 9.16833 47.56C10.4683 47.0733 10.555 46.5 9.35833 46.8133C8.16166 47.1267 6.77333 46.5883 5.70499 47.0133L5.43666 47.6533ZM14.2183 35.615C16.4767 35.5133 17.725 36.2117 19.33 36.0517C20.9333 35.8917 20.2617 35.4833 19.09 35.5483C17.9183 35.6133 16.22 34.8333 13.7867 35.3017C11.3533 35.77 11.475 36.255 9.59166 36.6633L9.16666 37.2633C9.16666 37.2633 10.0167 37.0883 10.9717 36.6633C11.9267 36.24 12.9717 35.67 14.2183 35.615ZM25.9367 35.395C27.415 35.3067 28.6583 34.2183 30.24 34.11L29.3217 33.7933C29.3217 33.7933 27.445 34.7733 25.935 34.8817C24.4267 34.99 24.3733 35.4883 25.9367 35.395Z" fill="#F4900C"/>
<path d="M25.144 8.744C25.848 8.744 26.4 8.824 26.8 8.984C27.216 9.128 27.64 9.344 28.072 9.632C28.424 9.856 28.696 9.968 28.888 9.968C29.032 9.968 29.144 9.888 29.224 9.728C29.304 9.552 29.368 9.28 29.416 8.912H29.968C29.888 9.84 29.848 11.472 29.848 13.808H29.296C29.2 12.512 28.824 11.424 28.168 10.544C27.528 9.648 26.592 9.2 25.36 9.2C24.496 9.2 23.792 9.464 23.248 9.992C22.704 10.504 22.432 11.168 22.432 11.984C22.432 12.592 22.568 13.12 22.84 13.568C23.128 14.016 23.488 14.4 23.92 14.72C24.352 15.04 24.968 15.448 25.768 15.944L26.464 16.376C27.472 17 28.264 17.552 28.84 18.032C29.432 18.496 29.904 19.032 30.256 19.64C30.608 20.248 30.784 20.96 30.784 21.776C30.784 23.232 30.304 24.36 29.344 25.16C28.384 25.944 27.168 26.336 25.696 26.336C24.928 26.336 24.296 26.256 23.8 26.096C23.32 25.936 22.856 25.72 22.408 25.448C22.056 25.224 21.784 25.112 21.592 25.112C21.448 25.112 21.336 25.2 21.256 25.376C21.176 25.536 21.112 25.8 21.064 26.168H20.512C20.576 25.288 20.608 23.368 20.608 20.408H21.16C21.272 22.024 21.672 23.336 22.36 24.344C23.048 25.352 24.104 25.856 25.528 25.856C26.392 25.856 27.128 25.592 27.736 25.064C28.344 24.52 28.648 23.72 28.648 22.664C28.648 21.768 28.344 21.008 27.736 20.384C27.144 19.76 26.2 19.056 24.904 18.272C23.96 17.696 23.192 17.184 22.6 16.736C22.024 16.288 21.552 15.752 21.184 15.128C20.816 14.488 20.632 13.744 20.632 12.896C20.632 11.552 21.064 10.528 21.928 9.824C22.792 9.104 23.864 8.744 25.144 8.744ZM45.1609 23.984C45.5929 24.976 46.1449 25.488 46.8169 25.52V26C46.1769 25.952 45.3209 25.928 44.2489 25.928C42.8729 25.928 41.8489 25.952 41.1769 26V25.52C41.7689 25.488 42.2009 25.408 42.4729 25.28C42.7609 25.152 42.9049 24.936 42.9049 24.632C42.9049 24.376 42.7929 24 42.5689 23.504L41.3449 20.768H35.5129L34.6969 22.568C34.4249 23.192 34.2889 23.704 34.2889 24.104C34.2889 24.52 34.4329 24.848 34.7209 25.088C35.0249 25.312 35.5049 25.456 36.1609 25.52V26C35.6809 25.952 34.9529 25.928 33.9769 25.928C33.0009 25.928 32.3049 25.952 31.8889 26V25.52C32.3209 25.408 32.6889 25.168 32.9929 24.8C33.2969 24.416 33.5849 23.912 33.8569 23.288L39.1609 11.288H39.5449L45.1609 23.984ZM41.1529 20.288L38.4409 14.192L35.7049 20.288H41.1529ZM57.7949 11.48C58.4669 11.48 59.0029 11.456 59.4029 11.408V11.888C58.9549 12 58.5949 12.224 58.3229 12.56C58.0509 12.88 57.7389 13.44 57.3869 14.24L52.1309 26.12H51.7469L46.1309 13.424C45.6989 12.432 45.1469 11.92 44.4749 11.888V11.408C45.1309 11.456 45.9869 11.48 47.0429 11.48C48.4189 11.48 49.4429 11.456 50.1149 11.408V11.888C49.5229 11.92 49.0829 12 48.7949 12.128C48.5229 12.256 48.3869 12.472 48.3869 12.776C48.3869 13.032 48.4989 13.408 48.7229 13.904L52.8509 23.216L56.4269 15.248C56.8269 14.384 57.0269 13.704 57.0269 13.208C57.0269 12.76 56.8669 12.44 56.5469 12.248C56.2429 12.04 55.7709 11.92 55.1309 11.888V11.408C55.6109 11.456 56.4989 11.48 57.7949 11.48ZM72.1519 23.168C72.1519 24 72.2079 24.944 72.3199 26C71.2799 25.952 69.5279 25.928 67.0639 25.928C64.1039 25.928 61.8639 25.952 60.3439 26V25.52C60.9199 25.488 61.3359 25.424 61.5919 25.328C61.8639 25.232 62.0479 25.048 62.1439 24.776C62.2399 24.504 62.2879 24.064 62.2879 23.456V13.952C62.2879 13.344 62.2399 12.904 62.1439 12.632C62.0479 12.36 61.8639 12.176 61.5919 12.08C61.3359 11.984 60.9199 11.92 60.3439 11.888V11.408C61.8639 11.456 64.1039 11.48 67.0639 11.48C69.3039 11.48 70.8959 11.456 71.8399 11.408C71.7279 12.368 71.6719 13.232 71.6719 14C71.6719 14.624 71.6959 15.12 71.7439 15.488H71.1919C71.0799 14.176 70.7999 13.264 70.3519 12.752C69.9199 12.224 69.2079 11.96 68.2159 11.96H66.4639C65.8879 11.96 65.4639 12.008 65.1919 12.104C64.9359 12.184 64.7599 12.36 64.6639 12.632C64.5679 12.904 64.5199 13.344 64.5199 13.952V18.416H66.5119C67.0239 18.416 67.4159 18.288 67.6879 18.032C67.9599 17.76 68.1439 17.472 68.2399 17.168C68.3359 16.848 68.4239 16.448 68.5039 15.968H69.0559C69.0079 16.512 68.9839 17.104 68.9839 17.744V18.656C68.9839 19.28 69.0319 20.176 69.1279 21.344H68.5759C68.4799 20.576 68.2959 19.976 68.0239 19.544C67.7519 19.112 67.2479 18.896 66.5119 18.896H64.5199V23.456C64.5199 24.064 64.5679 24.504 64.6639 24.776C64.7599 25.048 64.9359 25.232 65.1919 25.328C65.4639 25.408 65.8879 25.448 66.4639 25.448H68.2159C69.0159 25.448 69.6479 25.32 70.1119 25.064C70.5759 24.808 70.9279 24.4 71.1679 23.84C71.4079 23.264 71.5759 22.464 71.6719 21.44H72.2239C72.1759 21.872 72.1519 22.448 72.1519 23.168ZM88.8014 11.888C88.2414 11.92 87.8254 12.008 87.5534 12.152C87.2814 12.28 87.0974 12.504 87.0014 12.824C86.9054 13.128 86.8574 13.584 86.8574 14.192V19.496C86.8574 20.6 86.7774 21.544 86.6174 22.328C86.4734 23.096 86.2254 23.768 85.8734 24.344C85.4894 24.952 84.9294 25.44 84.1934 25.808C83.4734 26.16 82.6494 26.336 81.7214 26.336C80.0734 26.336 78.8094 25.984 77.9294 25.28C77.2254 24.656 76.7534 23.944 76.5134 23.144C76.2734 22.344 76.1534 21.152 76.1534 19.568V13.952C76.1534 13.344 76.1054 12.904 76.0094 12.632C75.9134 12.36 75.7294 12.176 75.4574 12.08C75.2014 11.984 74.7854 11.92 74.2094 11.888V11.408C74.8814 11.456 75.9054 11.48 77.2814 11.48C78.5614 11.48 79.5774 11.456 80.3294 11.408V11.888C79.7534 11.92 79.3294 11.984 79.0574 12.08C78.8014 12.176 78.6254 12.36 78.5294 12.632C78.4334 12.904 78.3854 13.344 78.3854 13.952V19.976C78.3854 21.16 78.4654 22.144 78.6254 22.928C78.7854 23.696 79.1214 24.32 79.6334 24.8C80.1614 25.264 80.9294 25.496 81.9374 25.496C83.5374 25.496 84.6654 24.992 85.3214 23.984C85.9774 22.976 86.3054 21.568 86.3054 19.76V14.192C86.3054 13.328 86.1454 12.736 85.8254 12.416C85.5214 12.096 84.9534 11.92 84.1214 11.888V11.408C84.6974 11.456 85.5134 11.48 86.5694 11.48C87.5294 11.48 88.2734 11.456 88.8014 11.408V11.888ZM104.574 24.992C104.27 25.424 103.918 25.76 103.518 26C103.134 26.224 102.67 26.336 102.126 26.336C100.782 26.336 99.9583 25.728 99.6543 24.512L98.9103 21.512C98.6863 20.616 98.3503 20.016 97.9023 19.712C97.4703 19.408 96.8223 19.256 95.9583 19.256H94.5903V23.456C94.5903 24.064 94.6383 24.504 94.7343 24.776C94.8303 25.048 95.0063 25.232 95.2623 25.328C95.5343 25.424 95.9583 25.488 96.5343 25.52V26C95.7983 25.952 94.7823 25.928 93.4863 25.928C92.1103 25.928 91.0863 25.952 90.4143 26V25.52C90.9903 25.488 91.4063 25.424 91.6623 25.328C91.9343 25.232 92.1183 25.048 92.2143 24.776C92.3103 24.504 92.3583 24.064 92.3583 23.456V13.952C92.3583 13.344 92.3103 12.904 92.2143 12.632C92.1183 12.36 91.9343 12.176 91.6623 12.08C91.4063 11.984 90.9903 11.92 90.4143 11.888V11.408C91.0863 11.456 92.0623 11.48 93.3423 11.48L95.7903 11.456C96.0623 11.44 96.3743 11.432 96.7263 11.432C98.5183 11.432 99.8863 11.768 100.83 12.44C101.79 13.112 102.27 13.984 102.27 15.056C102.27 15.984 101.894 16.832 101.142 17.6C100.406 18.368 99.1903 18.856 97.4943 19.064C97.8143 19.096 98.0863 19.128 98.3103 19.16C99.1583 19.288 99.8303 19.544 100.326 19.928C100.822 20.312 101.174 20.928 101.382 21.776L101.91 23.96C102.038 24.52 102.174 24.92 102.318 25.16C102.478 25.384 102.678 25.496 102.918 25.496C103.318 25.496 103.758 25.224 104.238 24.68L104.574 24.992ZM96.1263 11.888C95.6943 11.888 95.3663 11.944 95.1423 12.056C94.9343 12.168 94.7903 12.368 94.7103 12.656C94.6303 12.944 94.5903 13.376 94.5903 13.952V18.776H96.1983C97.6063 18.776 98.5663 18.48 99.0783 17.888C99.6063 17.28 99.8703 16.424 99.8703 15.32C99.8703 14.168 99.5743 13.312 98.9823 12.752C98.4063 12.176 97.4543 11.888 96.1263 11.888ZM110.527 11.072C111.231 11.072 111.783 11.152 112.183 11.312C112.599 11.456 113.023 11.672 113.455 11.96C113.807 12.184 114.079 12.296 114.271 12.296C114.415 12.296 114.527 12.216 114.607 12.056C114.687 11.88 114.751 11.608 114.799 11.24H115.351C115.271 12.072 115.231 13.544 115.231 15.656H114.679C114.583 14.504 114.207 13.528 113.551 12.728C112.911 11.928 111.975 11.528 110.743 11.528C109.895 11.528 109.191 11.752 108.631 12.2C108.087 12.648 107.815 13.216 107.815 13.904C107.815 14.4 107.935 14.832 108.175 15.2C108.431 15.568 108.751 15.888 109.135 16.16C109.535 16.416 110.095 16.736 110.815 17.12L111.607 17.552C112.599 18.08 113.391 18.552 113.983 18.968C114.591 19.384 115.079 19.864 115.447 20.408C115.815 20.936 115.999 21.552 115.999 22.256C115.999 23.552 115.527 24.56 114.583 25.28C113.655 25.984 112.487 26.336 111.079 26.336C110.311 26.336 109.679 26.256 109.183 26.096C108.703 25.936 108.239 25.72 107.791 25.448C107.439 25.224 107.167 25.112 106.975 25.112C106.831 25.112 106.719 25.2 106.639 25.376C106.559 25.536 106.495 25.8 106.447 26.168H105.895C105.959 25.384 105.991 23.624 105.991 20.888H106.543C106.655 22.376 107.055 23.576 107.743 24.488C108.431 25.4 109.487 25.856 110.911 25.856C111.711 25.856 112.399 25.632 112.975 25.184C113.567 24.72 113.863 24.04 113.863 23.144C113.863 22.616 113.711 22.152 113.407 21.752C113.103 21.336 112.695 20.968 112.183 20.648C111.671 20.328 110.959 19.928 110.047 19.448C108.735 18.776 107.735 18.104 107.047 17.432C106.359 16.76 106.015 15.888 106.015 14.816C106.015 13.632 106.447 12.712 107.311 12.056C108.191 11.4 109.263 11.072 110.527 11.072ZM130.763 11.408C133.259 11.408 135.131 12.016 136.379 13.232C137.643 14.432 138.275 16.192 138.275 18.512C138.275 20.016 137.971 21.336 137.363 22.472C136.755 23.592 135.867 24.464 134.699 25.088C133.547 25.696 132.163 26 130.547 26L129.155 25.976C128.259 25.944 127.603 25.928 127.187 25.928C125.875 25.928 124.883 25.952 124.211 26V25.52C124.787 25.488 125.203 25.424 125.459 25.328C125.731 25.232 125.915 25.048 126.011 24.776C126.107 24.504 126.155 24.064 126.155 23.456V13.952C126.155 13.344 126.107 12.904 126.011 12.632C125.915 12.36 125.731 12.176 125.459 12.08C125.203 11.984 124.787 11.92 124.211 11.888V11.408C124.771 11.456 125.547 11.48 126.539 11.48L128.579 11.456C129.667 11.424 130.395 11.408 130.763 11.408ZM130.163 11.84C129.667 11.84 129.291 11.896 129.035 12.008C128.795 12.12 128.627 12.32 128.531 12.608C128.435 12.896 128.387 13.328 128.387 13.904V23.504C128.387 24.08 128.435 24.512 128.531 24.8C128.627 25.088 128.795 25.288 129.035 25.4C129.291 25.512 129.675 25.568 130.187 25.568C131.643 25.568 132.787 25.312 133.619 24.8C134.451 24.272 135.035 23.504 135.371 22.496C135.707 21.488 135.875 20.192 135.875 18.608C135.875 16.272 135.443 14.56 134.579 13.472C133.715 12.384 132.243 11.84 130.163 11.84ZM152.191 23.168C152.191 24 152.247 24.944 152.359 26C151.319 25.952 149.567 25.928 147.103 25.928C144.143 25.928 141.903 25.952 140.383 26V25.52C140.959 25.488 141.375 25.424 141.631 25.328C141.903 25.232 142.087 25.048 142.183 24.776C142.279 24.504 142.327 24.064 142.327 23.456V13.952C142.327 13.344 142.279 12.904 142.183 12.632C142.087 12.36 141.903 12.176 141.631 12.08C141.375 11.984 140.959 11.92 140.383 11.888V11.408C141.903 11.456 144.143 11.48 147.103 11.48C149.343 11.48 150.935 11.456 151.879 11.408C151.767 12.368 151.711 13.232 151.711 14C151.711 14.624 151.735 15.12 151.783 15.488H151.231C151.119 14.176 150.839 13.264 150.391 12.752C149.959 12.224 149.247 11.96 148.255 11.96H146.503C145.927 11.96 145.503 12.008 145.231 12.104C144.975 12.184 144.799 12.36 144.703 12.632C144.607 12.904 144.559 13.344 144.559 13.952V18.416H146.551C147.063 18.416 147.455 18.288 147.727 18.032C147.999 17.76 148.183 17.472 148.279 17.168C148.375 16.848 148.463 16.448 148.543 15.968H149.095C149.047 16.512 149.023 17.104 149.023 17.744V18.656C149.023 19.28 149.071 20.176 149.167 21.344H148.615C148.519 20.576 148.335 19.976 148.063 19.544C147.791 19.112 147.287 18.896 146.551 18.896H144.559V23.456C144.559 24.064 144.607 24.504 144.703 24.776C144.799 25.048 144.975 25.232 145.231 25.328C145.503 25.408 145.927 25.448 146.503 25.448H148.255C149.055 25.448 149.687 25.32 150.151 25.064C150.615 24.808 150.967 24.4 151.207 23.84C151.447 23.264 151.615 22.464 151.711 21.44H152.263C152.215 21.872 152.191 22.448 152.191 23.168Z" fill="#7B0200"/>
<path d="M79.896 36.488C79.32 36.52 78.896 36.584 78.624 36.68C78.368 36.776 78.192 36.96 78.096 37.232C78 37.504 77.952 37.944 77.952 38.552V50.456C77.952 51.064 78 51.504 78.096 51.776C78.192 52.048 78.368 52.232 78.624 52.328C78.896 52.424 79.32 52.488 79.896 52.52V53C79.16 52.952 78.144 52.928 76.848 52.928C75.472 52.928 74.448 52.952 73.776 53V52.52C74.352 52.488 74.768 52.424 75.024 52.328C75.296 52.232 75.48 52.048 75.576 51.776C75.672 51.504 75.72 51.064 75.72 50.456V37.592L69.936 53.12H69.552L63.504 37.544V50.216C63.504 50.84 63.552 51.304 63.648 51.608C63.76 51.912 63.968 52.136 64.272 52.28C64.576 52.408 65.048 52.488 65.688 52.52V53C65.112 52.952 64.296 52.928 63.24 52.928C62.28 52.928 61.536 52.952 61.008 53V52.52C61.568 52.488 61.984 52.408 62.256 52.28C62.528 52.136 62.712 51.912 62.808 51.608C62.904 51.288 62.952 50.824 62.952 50.216V38.552C62.952 37.944 62.904 37.504 62.808 37.232C62.712 36.96 62.528 36.776 62.256 36.68C62 36.584 61.584 36.52 61.008 36.488V36.008C61.536 36.056 62.28 36.08 63.24 36.08C64.072 36.08 64.752 36.056 65.28 36.008L70.56 49.904L75.72 36.08H76.848C78.144 36.08 79.16 36.056 79.896 36.008V36.488ZM94.1063 50.984C94.5383 51.976 95.0903 52.488 95.7623 52.52V53C95.1223 52.952 94.2663 52.928 93.1943 52.928C91.8183 52.928 90.7943 52.952 90.1223 53V52.52C90.7143 52.488 91.1463 52.408 91.4183 52.28C91.7063 52.152 91.8503 51.936 91.8503 51.632C91.8503 51.376 91.7383 51 91.5143 50.504L90.2903 47.768H84.4583L83.6423 49.568C83.3703 50.192 83.2343 50.704 83.2343 51.104C83.2343 51.52 83.3783 51.848 83.6663 52.088C83.9703 52.312 84.4503 52.456 85.1063 52.52V53C84.6263 52.952 83.8983 52.928 82.9223 52.928C81.9463 52.928 81.2503 52.952 80.8342 53V52.52C81.2663 52.408 81.6343 52.168 81.9383 51.8C82.2423 51.416 82.5303 50.912 82.8023 50.288L88.1063 38.288H88.4903L94.1063 50.984ZM90.0983 47.288L87.3863 41.192L84.6503 47.288H90.0983ZM115.111 38.888C114.535 38.92 114.111 38.984 113.839 39.08C113.583 39.176 113.407 39.36 113.311 39.632C113.215 39.904 113.167 40.344 113.167 40.952V50.456C113.167 51.064 113.215 51.504 113.311 51.776C113.407 52.048 113.583 52.232 113.839 52.328C114.111 52.424 114.535 52.488 115.111 52.52V53C114.375 52.952 113.359 52.928 112.063 52.928C110.687 52.928 109.663 52.952 108.991 53V52.52C109.567 52.488 109.983 52.424 110.239 52.328C110.511 52.232 110.695 52.048 110.791 51.776C110.887 51.504 110.935 51.064 110.935 50.456V39.92L105.151 53.12H104.767L99.1993 39.944V50.216C99.1993 50.84 99.2473 51.304 99.3433 51.608C99.4553 51.912 99.6633 52.136 99.9673 52.28C100.271 52.408 100.743 52.488 101.383 52.52V53C100.807 52.952 99.9913 52.928 98.9353 52.928C97.9753 52.928 97.2313 52.952 96.7033 53V52.52C97.2633 52.488 97.6793 52.408 97.9513 52.28C98.2233 52.136 98.4073 51.912 98.5033 51.608C98.5993 51.288 98.6473 50.824 98.6473 50.216V40.952C98.6473 40.344 98.5993 39.904 98.5033 39.632C98.4073 39.36 98.2233 39.176 97.9513 39.08C97.6953 38.984 97.2793 38.92 96.7033 38.888V38.408C97.2313 38.456 97.9753 38.48 98.9353 38.48C99.7033 38.48 100.383 38.456 100.975 38.408L105.799 50.096L110.935 38.48H112.063C113.359 38.48 114.375 38.456 115.111 38.408V38.888ZM129.309 50.984C129.741 51.976 130.293 52.488 130.965 52.52V53C130.325 52.952 129.469 52.928 128.397 52.928C127.021 52.928 125.997 52.952 125.325 53V52.52C125.917 52.488 126.349 52.408 126.621 52.28C126.909 52.152 127.053 51.936 127.053 51.632C127.053 51.376 126.941 51 126.717 50.504L125.493 47.768H119.661L118.845 49.568C118.573 50.192 118.437 50.704 118.437 51.104C118.437 51.52 118.581 51.848 118.869 52.088C119.173 52.312 119.653 52.456 120.309 52.52V53C119.829 52.952 119.101 52.928 118.125 52.928C117.149 52.928 116.453 52.952 116.037 53V52.52C116.469 52.408 116.837 52.168 117.141 51.8C117.445 51.416 117.733 50.912 118.005 50.288L123.309 38.288H123.693L129.309 50.984ZM125.301 47.288L122.589 41.192L119.853 47.288H125.301ZM146.498 38.888C145.938 38.92 145.522 39.008 145.25 39.152C144.978 39.28 144.794 39.504 144.698 39.824C144.602 40.128 144.554 40.584 144.554 41.192V53.12H144.002L134.402 39.824V50.216C134.402 50.84 134.45 51.304 134.546 51.608C134.658 51.912 134.866 52.136 135.17 52.28C135.474 52.408 135.946 52.488 136.586 52.52V53C136.01 52.952 135.194 52.928 134.138 52.928C133.178 52.928 132.434 52.952 131.906 53V52.52C132.466 52.488 132.882 52.408 133.154 52.28C133.426 52.136 133.61 51.912 133.706 51.608C133.802 51.288 133.85 50.824 133.85 50.216V40.952C133.85 40.344 133.802 39.904 133.706 39.632C133.61 39.36 133.426 39.176 133.154 39.08C132.898 38.984 132.482 38.92 131.906 38.888V38.408C132.434 38.456 133.178 38.48 134.138 38.48C135.002 38.48 135.738 38.456 136.346 38.408L144.002 49.064V41.192C144.002 40.568 143.946 40.104 143.834 39.8C143.738 39.496 143.538 39.28 143.234 39.152C142.93 39.008 142.458 38.92 141.818 38.888V38.408C142.394 38.456 143.21 38.48 144.266 38.48C145.226 38.48 145.97 38.456 146.498 38.408V38.888Z" fill="#7B0200"/>
</svg>
