<svg width="192" height="104" viewBox="0 0 192 104" fill="none" xmlns="http://www.w3.org/2000/svg">
<path d="M16.0083 35.9155C16.0083 35.9155 16.8741 33.8378 19.449 34.1796C22.0238 34.5214 39.4739 37.4794 47.7784 41.3344C56.085 45.1874 65.446 49.7425 71.3062 56.6302C72.8598 58.4593 72.228 59.7975 72.228 59.7975L70.0819 75.2051C70.0819 75.2051 69.4605 78.2895 66.4838 79.1119L5.19312 96.0026C5.19312 96.0026 2.07141 96.7152 2.07141 93.5024V77.4153C2.07141 77.4153 2.38627 75.4826 3.15065 73.2206C3.91295 70.9523 16.0083 35.9155 16.0083 35.9155Z" fill="#F4900C"/>
<path d="M63.4057 71.9895C54.1918 63.1692 32.315 52.8926 16.1057 51.3473C15.8797 51.3271 15.6534 51.3833 15.463 51.5068C15.2726 51.6304 15.1291 51.8141 15.0555 52.0288C15.0555 52.0288 2.05078 90.5789 2.05078 91.2169C2.05078 91.5276 2.19578 91.8238 2.43815 92.0165C2.5603 92.1092 2.70152 92.1737 2.85162 92.2052C3.00172 92.2367 3.15695 92.2345 3.30609 92.1987L64.2467 75.3888C64.632 75.2893 64.8246 75.0698 64.893 74.6762C65.0193 73.9885 64.7355 73.2593 63.4057 71.9895Z" fill="#A0041E"/>
<path d="M64.8846 74.7492L2.07141 91.6316V76.8993C2.07141 76.8993 13.1144 52.0935 15.3226 37.0132C50.0115 42.022 66.5956 60.0396 66.5956 60.0396L64.8846 74.7492Z" fill="#A0041E"/>
<path d="M16.9614 82.3155C16.9619 83.0155 16.8244 83.7088 16.5567 84.3555C16.289 85.0023 15.8964 85.59 15.4014 86.0848C14.9063 86.5797 14.3185 86.9721 13.6716 87.2395C13.0247 87.5069 12.3315 87.6442 11.6315 87.6434C10.2182 87.6434 8.86275 87.0819 7.8634 86.0826C6.86404 85.0832 6.30261 83.7278 6.30261 82.3145C6.30261 80.9012 6.86404 79.5458 7.8634 78.5464C8.86275 77.5471 10.2182 76.9857 11.6315 76.9857C12.3316 76.9848 13.0251 77.1221 13.6721 77.3897C14.3191 77.6573 14.907 78.0498 15.4021 78.5449C15.8972 79.04 16.2898 79.6279 16.5573 80.2749C16.8249 80.9219 16.9622 81.6154 16.9614 82.3155ZM27.3187 74.0297C27.3193 74.7296 27.1818 75.4229 26.9141 76.0697C26.6464 76.7164 26.2538 77.3041 25.7587 77.799C25.2637 78.2938 24.6759 78.6862 24.029 78.9536C23.3821 79.2211 22.6888 79.3583 21.9888 79.3575C21.289 79.3575 20.5961 79.2197 19.9496 78.9519C19.303 78.684 18.7156 78.2915 18.2208 77.7967C17.7259 77.3019 17.3334 76.7144 17.0656 76.0679C16.7978 75.4214 16.66 74.7284 16.66 74.0286C16.66 73.3288 16.7978 72.6359 17.0656 71.9894C17.3334 71.3428 17.7259 70.7554 18.2208 70.2606C18.7156 69.7657 19.303 69.3732 19.9496 69.1054C20.5961 68.8376 21.289 68.6998 21.9888 68.6998C22.689 68.6989 23.3824 68.8363 24.0295 69.1038C24.6765 69.3714 25.2644 69.7639 25.7595 70.259C26.2545 70.7541 26.6471 71.342 26.9147 71.989C27.1822 72.6361 27.3195 73.3295 27.3187 74.0297ZM39.7475 76.1011C39.7481 76.8011 39.6106 77.4943 39.3429 78.1411C39.0752 78.7879 38.6826 79.3756 38.1875 79.8704C37.6925 80.3653 37.1047 80.7577 36.4578 81.0251C35.8109 81.2925 35.1176 81.4298 34.4177 81.429C33.0043 81.429 31.6489 80.8675 30.6496 79.8682C29.6502 78.8688 29.0888 77.5134 29.0888 76.1001C29.0888 74.6868 29.6502 73.3314 30.6496 72.332C31.6489 71.3327 33.0043 70.7712 34.4177 70.7712C35.1178 70.7704 35.8113 70.9077 36.4583 71.1753C37.1053 71.4429 37.6932 71.8354 38.1883 72.3305C38.6834 72.8256 39.0759 73.4135 39.3435 74.0605C39.6111 74.7075 39.7484 75.401 39.7475 76.1011ZM50.1049 67.8152C50.1054 68.5152 49.9679 69.2085 49.7003 69.8552C49.4326 70.502 49.04 71.0897 48.5449 71.5845C48.0498 72.0794 47.462 72.4718 46.8152 72.7392C46.1683 73.0067 45.475 73.1439 44.775 73.1431C43.3617 73.1431 42.0063 72.5816 41.0069 71.5823C40.0076 70.5829 39.4461 69.2275 39.4461 67.8142C39.4461 66.4009 40.0076 65.0455 41.0069 64.0461C42.0063 63.0468 43.3617 62.4854 44.775 62.4854C45.4752 62.4845 46.1686 62.6218 46.8156 62.8894C47.4627 63.157 48.0505 63.5495 48.5456 64.0446C49.0407 64.5397 49.4333 65.1276 49.7009 65.7746C49.9684 66.4216 50.1057 67.1151 50.1049 67.8152ZM62.5337 69.8867C62.5343 70.5867 62.3968 71.2799 62.1291 71.9267C61.8614 72.5735 61.4688 73.1611 60.9737 73.656C60.4787 74.1509 59.8909 74.5433 59.244 74.8107C58.5971 75.0781 57.9038 75.2154 57.2038 75.2145C55.7905 75.2145 54.4351 74.6531 53.4358 73.6538C52.4364 72.6544 51.875 71.299 51.875 69.8857C51.875 68.4724 52.4364 67.117 53.4358 66.1176C54.4351 65.1183 55.7905 64.5568 57.2038 64.5568C57.904 64.556 58.5974 64.6933 59.2445 64.9609C59.8915 65.2284 60.4794 65.621 60.9745 66.1161C61.4695 66.6112 61.8621 67.1991 62.1297 67.8461C62.3972 68.4931 62.5345 69.1866 62.5337 69.8867Z" fill="#BE1931"/>
<path d="M66.4859 57.388C57.2699 48.5677 32.317 38.3926 16.1057 36.8473C15.8796 36.8271 15.6533 36.8833 15.463 37.0068C15.2726 37.1304 15.1291 37.3141 15.0554 37.5288C15.0554 37.5288 4.73536 66.171 2.22681 74.0302C1.86431 75.1653 2.05074 76.6361 2.05074 76.7169C2.05074 77.0276 2.19574 77.3238 2.4381 77.5165C2.56025 77.6092 2.70148 77.6737 2.85158 77.7052C3.00168 77.7367 3.1569 77.7345 3.30605 77.6987L67.1011 61.6511C67.2892 61.6021 67.4593 61.5001 67.5911 61.3572C67.723 61.2144 67.811 61.0367 67.8448 60.8453C67.9691 60.1596 67.8137 58.6599 66.4859 57.388Z" fill="#F4900C"/>
<path d="M66.486 57.388C57.27 48.5677 32.317 38.3926 16.1057 36.8473C15.8797 36.8271 15.6534 36.8833 15.463 37.0068C15.2726 37.1304 15.1291 37.3141 15.0555 37.5288C15.0555 37.5288 2.05078 74.0074 2.05078 74.6454C2.05078 74.9561 2.19578 75.2523 2.43815 75.445C2.5603 75.5377 2.70152 75.6022 2.85162 75.6337C3.00172 75.6653 3.15695 75.6631 3.30609 75.6273L65.8521 59.5962C66.0402 59.5472 66.2103 59.4452 66.3421 59.3023C66.4739 59.1595 66.562 58.9818 66.5957 58.7904C66.72 58.1047 67.8138 58.6599 66.486 57.388Z" fill="#F4900C"/>
<path d="M19.9896 71.3518L16.1926 66.2642L25.4272 65.1726L28.4019 69.1954L39.969 66.2311L38.0591 63.679L46.7965 62.6454L47.9793 64.2445L59.5195 61.2285L59.4594 61.1477L60.1327 61.069L67.6169 59.1135C67.3798 58.4585 66.9925 57.8682 66.4859 57.39C65.2181 56.1762 63.6272 54.9374 61.8271 53.6966L54.434 54.432L50.4133 49.0565L53.3465 48.7106C46.231 45.0627 37.7463 41.7484 29.7007 39.5236L32.6774 43.5506L23.6706 44.4454L20.2113 39.8178L27.5174 38.954C23.4759 37.9265 19.5836 37.1787 16.1056 36.8473C15.8796 36.8271 15.6533 36.8833 15.4629 37.0068C15.2725 37.1304 15.1291 37.3141 15.0554 37.5288C15.0554 37.5288 12.205 44.9571 9.32156 53.564L16.4743 53.0669L20.0145 57.8541L10.6121 58.7883L8.49504 56.0146C7.00151 60.4765 5.24698 65.0503 4.04138 68.7003L8.44118 74.3119L19.9896 71.3518ZM37.8457 50.5397L41.6614 55.6997L32.752 56.5863L29.0109 51.5837L37.8457 50.5397Z" fill="#FFCC4D"/>
<path d="M22.5002 65.6508C24.1719 65.1992 27.5132 63.0884 30.8131 62.6348C34.115 62.1811 38.1274 63.9129 39.3227 63.772L44.114 63.2065C45.1828 63.0801 49.9742 60.4349 52.7582 60.0454C55.5423 59.656 59.273 61.6239 60.6112 61.2552C60.6112 61.2552 62.0985 61.6757 60.6112 61.8642C59.1238 62.0527 55.2233 60.5281 53.0586 60.8864C49.9472 61.4043 47.7287 63.1899 44.114 63.772C41.9348 64.1221 40.4019 64.4079 39.0989 64.5115C36.6877 64.7062 33.7131 62.8978 30.6701 63.4157C27.6271 63.9336 25.9575 65.9906 22.4982 66.3241C20.4495 66.5229 21.2222 65.9968 22.5002 65.6508ZM13.5515 71.7845C16.0248 71.2086 18.8752 70.2474 19.9896 71.3494L14.4153 73.4872L8.44118 74.3096C8.43911 74.3116 8.63175 72.93 13.5515 71.7845ZM33.9638 66.4981C37.0482 65.7606 39.0679 65.6177 39.9669 66.2308L34.3325 68.3541L28.3998 69.1951C28.4019 69.1951 28.9135 67.7057 33.9638 66.4981Z" fill="#F4900C"/>
<path d="M53.2535 61.707C55.4948 61.0918 58.3886 60.7997 59.1219 60.9737C59.1219 60.9737 65.0401 59.4387 67.3892 59.1694C67.3892 59.1694 61.9951 61.0151 60.3213 61.4481C58.6476 61.8789 48.0976 64.7955 47.9774 64.2445C47.8573 63.6935 49.8024 62.6578 53.2535 61.707Z" fill="#F4900C"/>
<path d="M4.03951 68.7004C4.03951 68.7004 3.88415 66.2208 5.60968 61.7423C7.33522 57.2638 8.09545 55.4927 8.49317 56.0147C8.89089 56.5367 7.33522 62.227 6.73035 63.6066C6.12548 64.9862 5.16224 67.8324 4.70238 68.3959C4.24458 68.9614 4.03951 68.7004 4.03951 68.7004ZM9.32176 53.5621C9.32176 53.5621 9.45019 50.401 10.227 48.199C11.0038 45.9971 12.3979 44.7148 12.5843 44.199C12.7708 43.6832 12.7293 41.0773 13.2472 39.8697C13.7651 38.662 14.8174 36.3254 16.1038 36.8453C17.3901 37.3652 13.214 45.7837 12.7148 47.4657C12.2135 49.1498 9.32176 53.5621 9.32176 53.5621Z" fill="#FFCC4D"/>
<path d="M14.2144 53.2224C15.8861 52.7708 19.2253 50.66 22.5272 50.2063C25.8292 49.7527 29.8416 51.4844 31.0368 51.3436L35.8282 50.7781C36.897 50.6517 41.6883 48.0064 44.4724 47.617C47.2565 47.2276 50.9872 49.1955 52.3253 48.8267C52.3253 48.8267 53.8127 49.2472 52.3253 49.4358C50.838 49.6243 46.9375 48.0997 44.7728 48.458C41.6614 48.9759 39.4429 50.7636 35.8282 51.3436C33.649 51.6937 32.1161 51.9795 30.8131 52.0831C28.4019 52.2778 25.4273 50.4694 22.3843 50.9873C19.3413 51.5051 17.6717 53.5621 14.2124 53.8956C12.1637 54.0945 12.9363 53.5683 14.2144 53.2224ZM18.3284 66.0096C16.7561 66.196 14.5811 64.4042 10.6577 65.1044C6.73228 65.8066 4.03937 68.7004 4.03937 68.7004L4.29209 69.8874C4.29209 69.8874 3.29779 69.1893 4.67946 68.7605C6.06113 68.3317 7.50908 66.2084 10.8752 65.8459C14.2414 65.4834 15.3413 66.6497 17.6075 66.7139C19.8737 66.7781 18.3284 66.0096 18.3284 66.0096ZM58.0012 60.9863L61.272 61.1768L62.1441 60.4995L61.562 62.3431L58.8422 63.182L58.0012 60.9863ZM14.7592 39.2027C17.8022 38.3617 19.7846 39.8697 21.9866 39.6087C24.1886 39.3477 24.2196 39.9546 22.5272 40.3026C20.8349 40.6506 16.6028 39.1737 14.8504 39.7454C13.0979 40.3171 12.81 42.1276 12.81 42.1276L13.1 40.3171C13.0979 40.3171 12.7623 39.7537 14.7592 39.2027ZM18.8421 57.9681C23.1093 57.2846 23.4076 56.2136 26.606 55.5777C29.5185 54.9977 31.331 56.371 32.9675 56.371C35.6272 56.371 34.8152 54.747 33.9203 55.1282C32.0436 55.9277 28.2569 53.6533 24.5345 55.1282C22.635 55.8801 21.7608 56.92 18.8421 57.2866C15.9255 57.6512 17.3134 58.2146 18.8421 57.9681ZM40.3274 55.8325C42.1089 55.6564 44.8598 54.0054 47.5775 53.5642C50.2953 53.1209 52.7293 54.5999 54.432 54.4321C56.1348 54.2643 56.4828 53.3467 55.1529 53.4813C53.823 53.616 50.4279 52.1514 47.126 52.7977C43.824 53.444 42.5294 54.805 40.3274 55.1282C38.1275 55.4492 38.9934 55.965 40.3274 55.8325ZM6.75714 58.8257C8.23824 58.4363 9.77942 59.3146 11.3952 58.7097C13.0109 58.1049 13.1186 57.3923 11.6313 57.7817C10.144 58.1711 8.41846 57.5021 7.09065 58.0303L6.75714 58.8257ZM17.6717 43.8635C20.4786 43.7371 22.0301 44.6051 24.0249 44.4062C26.0177 44.2074 25.1829 43.6998 23.7266 43.7806C22.2704 43.8614 20.1596 42.892 17.1352 43.4741C14.1109 44.0561 14.2621 44.6589 11.9213 45.1665L11.3931 45.9122C11.3931 45.9122 12.4495 45.6947 13.6365 45.1665C14.8234 44.6403 16.1223 43.9319 17.6717 43.8635ZM32.2362 43.5901C34.0736 43.4803 35.6189 42.1276 37.5848 41.993L36.4434 41.5994C36.4434 41.5994 34.1109 42.8174 32.2342 42.952C30.3595 43.0867 30.2932 43.7061 32.2362 43.5901Z" fill="#F4900C"/>
<path d="M31.3128 10.6354C32.1844 10.6354 32.8678 10.7345 33.3631 10.9326C33.8781 11.1109 34.4031 11.3783 34.9379 11.7349C35.3737 12.0122 35.7105 12.1509 35.9482 12.1509C36.1265 12.1509 36.2652 12.0518 36.3642 11.8537C36.4633 11.6358 36.5425 11.299 36.6019 10.8434H37.2854C37.1863 11.9924 37.1368 14.013 37.1368 16.9051H36.4534C36.3345 15.3006 35.869 13.9535 35.0568 12.864C34.2644 11.7547 33.1056 11.2 31.5802 11.2C30.5105 11.2 29.6389 11.5269 28.9654 12.1806C28.2918 12.8145 27.9551 13.6366 27.9551 14.6469C27.9551 15.3996 28.1235 16.0533 28.4602 16.608C28.8168 17.1627 29.2625 17.6381 29.7974 18.0343C30.3322 18.4305 31.0949 18.9356 32.0854 19.5497L32.9471 20.0846C34.1951 20.8571 35.1756 21.5406 35.8888 22.1349C36.6217 22.7093 37.2061 23.373 37.6419 24.1257C38.0777 24.8785 38.2956 25.76 38.2956 26.7703C38.2956 28.573 37.7014 29.9695 36.5128 30.96C35.3242 31.9307 33.8187 32.416 31.9962 32.416C31.0454 32.416 30.2629 32.317 29.6488 32.1189C29.0545 31.9208 28.48 31.6533 27.9254 31.3166C27.4896 31.0392 27.1528 30.9006 26.9151 30.9006C26.7368 30.9006 26.5981 31.0095 26.4991 31.2274C26.4 31.4255 26.3208 31.7524 26.2614 32.208H25.5779C25.6572 31.1185 25.6968 28.7413 25.6968 25.0766H26.3802C26.5189 27.0773 27.0141 28.7017 27.8659 29.9497C28.7177 31.1977 30.0252 31.8217 31.7882 31.8217C32.8579 31.8217 33.7692 31.4949 34.5219 30.8411C35.2747 30.1676 35.6511 29.1771 35.6511 27.8697C35.6511 26.7604 35.2747 25.8194 34.5219 25.0469C33.789 24.2743 32.6202 23.4027 31.0156 22.432C29.8469 21.7189 28.896 21.085 28.1631 20.5303C27.4499 19.9756 26.8656 19.312 26.4099 18.5394C25.9543 17.747 25.7265 16.8259 25.7265 15.776C25.7265 14.112 26.2614 12.8442 27.3311 11.9726C28.4008 11.0811 29.728 10.6354 31.3128 10.6354ZM56.0957 29.504C56.6305 30.7322 57.314 31.3661 58.146 31.4057V32C57.3536 31.9406 56.2938 31.9109 54.9665 31.9109C53.2629 31.9109 51.9951 31.9406 51.1631 32V31.4057C51.896 31.3661 52.4309 31.267 52.7677 31.1086C53.1242 30.9501 53.3025 30.6827 53.3025 30.3063C53.3025 29.9893 53.1639 29.5238 52.8865 28.9097L51.3711 25.5223H44.1505L43.1402 27.7509C42.8035 28.5234 42.6351 29.1573 42.6351 29.6526C42.6351 30.1676 42.8134 30.5737 43.17 30.8709C43.5463 31.1482 44.1406 31.3265 44.9528 31.4057V32C44.3585 31.9406 43.4572 31.9109 42.2488 31.9109C41.0404 31.9109 40.1787 31.9406 39.6637 32V31.4057C40.1985 31.267 40.6541 30.9699 41.0305 30.5143C41.4069 30.0389 41.7635 29.4149 42.1002 28.6423L48.6671 13.7851H49.1425L56.0957 29.504ZM51.1334 24.928L47.7757 17.3806L44.3882 24.928H51.1334ZM71.7377 14.0229C72.5697 14.0229 73.2333 13.9931 73.7285 13.9337V14.528C73.1739 14.6667 72.7282 14.944 72.3914 15.36C72.0546 15.7562 71.6684 16.4495 71.2325 17.44L64.7251 32.1486H64.2497L57.2965 16.4297C56.7617 15.2015 56.0783 14.5676 55.2463 14.528V13.9337C56.0584 13.9931 57.1183 14.0229 58.4257 14.0229C60.1293 14.0229 61.3971 13.9931 62.2291 13.9337V14.528C61.4962 14.5676 60.9514 14.6667 60.5948 14.8251C60.2581 14.9836 60.0897 15.251 60.0897 15.6274C60.0897 15.9444 60.2284 16.4099 60.5057 17.024L65.6165 28.5531L70.044 18.688C70.5392 17.6183 70.7868 16.7764 70.7868 16.1623C70.7868 15.6076 70.5887 15.2114 70.1925 14.9737C69.8162 14.7162 69.2318 14.5676 68.4394 14.528V13.9337C69.0337 13.9931 70.1331 14.0229 71.7377 14.0229ZM89.5131 28.4937C89.5131 29.5238 89.5824 30.6926 89.7211 32C88.4335 31.9406 86.2643 31.9109 83.2137 31.9109C79.5489 31.9109 76.7756 31.9406 74.8937 32V31.4057C75.6068 31.3661 76.1219 31.2869 76.4388 31.168C76.7756 31.0491 77.0034 30.8213 77.1222 30.4846C77.2411 30.1478 77.3005 29.603 77.3005 28.8503V17.0834C77.3005 16.3307 77.2411 15.7859 77.1222 15.4491C77.0034 15.1124 76.7756 14.8846 76.4388 14.7657C76.1219 14.6469 75.6068 14.5676 74.8937 14.528V13.9337C76.7756 13.9931 79.5489 14.0229 83.2137 14.0229C85.987 14.0229 87.9581 13.9931 89.1268 13.9337C88.9881 15.1223 88.9188 16.192 88.9188 17.1429C88.9188 17.9154 88.9485 18.5295 89.008 18.9851H88.3245C88.1859 17.3608 87.8392 16.2316 87.2845 15.5977C86.7497 14.944 85.8681 14.6171 84.64 14.6171H82.4708C81.7577 14.6171 81.2327 14.6766 80.896 14.7954C80.579 14.8945 80.3611 15.1124 80.2422 15.4491C80.1234 15.7859 80.064 16.3307 80.064 17.0834V22.6103H82.5302C83.1641 22.6103 83.6495 22.4518 83.9862 22.1349C84.323 21.7981 84.5508 21.4415 84.6697 21.0651C84.7885 20.669 84.8975 20.1737 84.9965 19.5794H85.68C85.6205 20.253 85.5908 20.9859 85.5908 21.7783V22.9074C85.5908 23.68 85.6502 24.7893 85.7691 26.2354H85.0857C84.9668 25.2846 84.739 24.5417 84.4022 24.0069C84.0655 23.472 83.4415 23.2046 82.5302 23.2046H80.064V28.8503C80.064 29.603 80.1234 30.1478 80.2422 30.4846C80.3611 30.8213 80.579 31.0491 80.896 31.168C81.2327 31.267 81.7577 31.3166 82.4708 31.3166H84.64C85.6304 31.3166 86.4129 31.1581 86.9874 30.8411C87.5619 30.5242 87.9977 30.019 88.2948 29.3257C88.592 28.6126 88.8 27.6221 88.9188 26.3543H89.6022C89.5428 26.8891 89.5131 27.6023 89.5131 28.4937ZM110.127 14.528C109.433 14.5676 108.918 14.6766 108.582 14.8549C108.245 15.0133 108.017 15.2907 107.898 15.6869C107.779 16.0632 107.72 16.6278 107.72 17.3806V23.9474C107.72 25.3143 107.621 26.483 107.423 27.4537C107.244 28.4046 106.937 29.2366 106.502 29.9497C106.026 30.7025 105.333 31.3067 104.422 31.7623C103.53 32.1981 102.51 32.416 101.361 32.416C99.3206 32.416 97.7556 31.9802 96.6661 31.1086C95.7945 30.336 95.2101 29.4545 94.913 28.464C94.6158 27.4735 94.4673 25.9977 94.4673 24.0366V17.0834C94.4673 16.3307 94.4078 15.7859 94.289 15.4491C94.1701 15.1124 93.9423 14.8846 93.6055 14.7657C93.2886 14.6469 92.7735 14.5676 92.0604 14.528V13.9337C92.8924 13.9931 94.1602 14.0229 95.8638 14.0229C97.4486 14.0229 98.7065 13.9931 99.6375 13.9337V14.528C98.9244 14.5676 98.3994 14.6469 98.0627 14.7657C97.7457 14.8846 97.5278 15.1124 97.409 15.4491C97.2901 15.7859 97.2307 16.3307 97.2307 17.0834V24.5417C97.2307 26.0076 97.3297 27.2259 97.5278 28.1966C97.7259 29.1474 98.1419 29.92 98.7758 30.5143C99.4295 31.0888 100.38 31.376 101.628 31.376C103.609 31.376 105.006 30.752 105.818 29.504C106.63 28.256 107.036 26.5128 107.036 24.2743V17.3806C107.036 16.3109 106.838 15.5779 106.442 15.1817C106.066 14.7855 105.362 14.5676 104.332 14.528V13.9337C105.046 13.9931 106.056 14.0229 107.363 14.0229C108.552 14.0229 109.473 13.9931 110.127 13.9337V14.528ZM129.655 30.752C129.279 31.2869 128.843 31.7029 128.348 32C127.872 32.2773 127.298 32.416 126.624 32.416C124.96 32.416 123.94 31.6632 123.564 30.1577L122.642 26.4434C122.365 25.3341 121.949 24.5912 121.394 24.2149C120.86 23.8385 120.057 23.6503 118.988 23.6503H117.294V28.8503C117.294 29.603 117.353 30.1478 117.472 30.4846C117.591 30.8213 117.809 31.0491 118.126 31.168C118.463 31.2869 118.988 31.3661 119.701 31.4057V32C118.789 31.9406 117.532 31.9109 115.927 31.9109C114.223 31.9109 112.956 31.9406 112.124 32V31.4057C112.837 31.3661 113.352 31.2869 113.669 31.168C114.005 31.0491 114.233 30.8213 114.352 30.4846C114.471 30.1478 114.53 29.603 114.53 28.8503V17.0834C114.53 16.3307 114.471 15.7859 114.352 15.4491C114.233 15.1124 114.005 14.8846 113.669 14.7657C113.352 14.6469 112.837 14.5676 112.124 14.528V13.9337C112.956 13.9931 114.164 14.0229 115.749 14.0229L118.78 13.9931C119.116 13.9733 119.503 13.9634 119.938 13.9634C122.157 13.9634 123.851 14.3794 125.02 15.2114C126.208 16.0434 126.802 17.123 126.802 18.4503C126.802 19.5992 126.337 20.6491 125.406 21.6C124.495 22.5509 122.989 23.155 120.889 23.4126C121.285 23.4522 121.622 23.4918 121.9 23.5314C122.949 23.6899 123.781 24.0069 124.396 24.4823C125.01 24.9577 125.445 25.7204 125.703 26.7703L126.357 29.4743C126.515 30.1676 126.684 30.6629 126.862 30.96C127.06 31.2373 127.308 31.376 127.605 31.376C128.1 31.376 128.645 31.0392 129.239 30.3657L129.655 30.752ZM119.196 14.528C118.661 14.528 118.255 14.5973 117.977 14.736C117.72 14.8747 117.541 15.1223 117.442 15.4789C117.343 15.8354 117.294 16.3703 117.294 17.0834V23.056H119.285C121.028 23.056 122.217 22.6895 122.85 21.9566C123.504 21.2038 123.831 20.144 123.831 18.7771C123.831 17.3509 123.465 16.291 122.732 15.5977C122.018 14.8846 120.84 14.528 119.196 14.528ZM137.025 13.5177C137.896 13.5177 138.58 13.6168 139.075 13.8149C139.59 13.9931 140.115 14.2606 140.65 14.6171C141.086 14.8945 141.423 15.0331 141.66 15.0331C141.839 15.0331 141.977 14.9341 142.076 14.736C142.175 14.5181 142.255 14.1813 142.314 13.7257H142.997C142.898 14.7558 142.849 16.5783 142.849 19.1931H142.165C142.047 17.7669 141.581 16.5585 140.769 15.568C139.976 14.5775 138.818 14.0823 137.292 14.0823C136.242 14.0823 135.371 14.3596 134.677 14.9143C134.004 15.469 133.667 16.1722 133.667 17.024C133.667 17.6381 133.816 18.173 134.113 18.6286C134.43 19.0842 134.826 19.4804 135.301 19.8171C135.797 20.1341 136.49 20.5303 137.381 21.0057L138.362 21.5406C139.59 22.1943 140.571 22.7787 141.304 23.2937C142.056 23.8088 142.661 24.403 143.116 25.0766C143.572 25.7303 143.8 26.493 143.8 27.3646C143.8 28.9691 143.215 30.2171 142.047 31.1086C140.898 31.9802 139.452 32.416 137.708 32.416C136.757 32.416 135.975 32.317 135.361 32.1189C134.767 31.9208 134.192 31.6533 133.637 31.3166C133.202 31.0392 132.865 30.9006 132.627 30.9006C132.449 30.9006 132.31 31.0095 132.211 31.2274C132.112 31.4255 132.033 31.7524 131.973 32.208H131.29C131.369 31.2373 131.409 29.0583 131.409 25.6709H132.092C132.231 27.5131 132.726 28.9989 133.578 30.128C134.43 31.2571 135.737 31.8217 137.5 31.8217C138.491 31.8217 139.343 31.5444 140.056 30.9897C140.789 30.4152 141.155 29.5733 141.155 28.464C141.155 27.8103 140.967 27.2358 140.591 26.7406C140.214 26.2255 139.709 25.7699 139.075 25.3737C138.441 24.9775 137.56 24.4823 136.431 23.888C134.806 23.056 133.568 22.224 132.716 21.392C131.864 20.56 131.439 19.4804 131.439 18.1531C131.439 16.6872 131.973 15.5482 133.043 14.736C134.133 13.9238 135.46 13.5177 137.025 13.5177ZM162.079 13.9337C165.17 13.9337 167.487 14.6865 169.032 16.192C170.597 17.6777 171.38 19.8568 171.38 22.7291C171.38 24.5912 171.004 26.2255 170.251 27.632C169.498 29.0187 168.399 30.0983 166.952 30.8709C165.526 31.6236 163.813 32 161.812 32L160.088 31.9703C158.979 31.9307 158.167 31.9109 157.652 31.9109C156.028 31.9109 154.799 31.9406 153.967 32V31.4057C154.68 31.3661 155.196 31.2869 155.512 31.168C155.849 31.0491 156.077 30.8213 156.196 30.4846C156.315 30.1478 156.374 29.603 156.374 28.8503V17.0834C156.374 16.3307 156.315 15.7859 156.196 15.4491C156.077 15.1124 155.849 14.8846 155.512 14.7657C155.196 14.6469 154.68 14.5676 153.967 14.528V13.9337C154.661 13.9931 155.621 14.0229 156.85 14.0229L159.375 13.9931C160.722 13.9535 161.624 13.9337 162.079 13.9337ZM161.336 14.4686C160.722 14.4686 160.257 14.5379 159.94 14.6766C159.643 14.8152 159.435 15.0629 159.316 15.4194C159.197 15.776 159.138 16.3109 159.138 17.024V28.9097C159.138 29.6229 159.197 30.1577 159.316 30.5143C159.435 30.8709 159.643 31.1185 159.94 31.2571C160.257 31.3958 160.732 31.4651 161.366 31.4651C163.169 31.4651 164.585 31.1482 165.615 30.5143C166.645 29.8606 167.368 28.9097 167.784 27.6617C168.2 26.4137 168.408 24.8091 168.408 22.848C168.408 19.9558 167.874 17.8362 166.804 16.4891C165.734 15.1421 163.912 14.4686 161.336 14.4686ZM188.609 28.4937C188.609 29.5238 188.678 30.6926 188.817 32C187.529 31.9406 185.36 31.9109 182.31 31.9109C178.645 31.9109 175.872 31.9406 173.99 32V31.4057C174.703 31.3661 175.218 31.2869 175.535 31.168C175.872 31.0491 176.099 30.8213 176.218 30.4846C176.337 30.1478 176.397 29.603 176.397 28.8503V17.0834C176.397 16.3307 176.337 15.7859 176.218 15.4491C176.099 15.1124 175.872 14.8846 175.535 14.7657C175.218 14.6469 174.703 14.5676 173.99 14.528V13.9337C175.872 13.9931 178.645 14.0229 182.31 14.0229C185.083 14.0229 187.054 13.9931 188.223 13.9337C188.084 15.1223 188.015 16.192 188.015 17.1429C188.015 17.9154 188.045 18.5295 188.104 18.9851H187.421C187.282 17.3608 186.935 16.2316 186.381 15.5977C185.846 14.944 184.964 14.6171 183.736 14.6171H181.567C180.854 14.6171 180.329 14.6766 179.992 14.7954C179.675 14.8945 179.457 15.1124 179.338 15.4491C179.219 15.7859 179.16 16.3307 179.16 17.0834V22.6103H181.626C182.26 22.6103 182.745 22.4518 183.082 22.1349C183.419 21.7981 183.647 21.4415 183.766 21.0651C183.885 20.669 183.993 20.1737 184.093 19.5794H184.776C184.717 20.253 184.687 20.9859 184.687 21.7783V22.9074C184.687 23.68 184.746 24.7893 184.865 26.2354H184.182C184.063 25.2846 183.835 24.5417 183.498 24.0069C183.161 23.472 182.537 23.2046 181.626 23.2046H179.16V28.8503C179.16 29.603 179.219 30.1478 179.338 30.4846C179.457 30.8213 179.675 31.0491 179.992 31.168C180.329 31.267 180.854 31.3166 181.567 31.3166H183.736C184.726 31.3166 185.509 31.1581 186.083 30.8411C186.658 30.5242 187.094 30.019 187.391 29.3257C187.688 28.6126 187.896 27.6221 188.015 26.3543H188.698C188.639 26.8891 188.609 27.6023 188.609 28.4937Z" fill="#ECDBC2"/>
<path d="M99.4945 44.9853C98.7813 45.0249 98.2564 45.1041 97.9196 45.223C97.6027 45.3419 97.3848 45.5697 97.2659 45.9064C97.147 46.2432 97.0876 46.7879 97.0876 47.5407V62.279C97.0876 63.0318 97.147 63.5765 97.2659 63.9133C97.3848 64.25 97.6027 64.4779 97.9196 64.5967C98.2564 64.7156 98.7813 64.7948 99.4945 64.8344V65.4287C98.5832 65.3693 97.3253 65.3396 95.7208 65.3396C94.0171 65.3396 92.7493 65.3693 91.9173 65.4287V64.8344C92.6305 64.7948 93.1455 64.7156 93.4625 64.5967C93.7992 64.4779 94.027 64.25 94.1459 63.9133C94.2648 63.5765 94.3242 63.0318 94.3242 62.279V46.3521L87.163 65.5773H86.6876L79.1996 46.2927V61.9819C79.1996 62.7544 79.259 63.3289 79.3779 63.7053C79.5166 64.0817 79.7741 64.359 80.1505 64.5373C80.5269 64.6958 81.1112 64.7948 81.9036 64.8344V65.4287C81.1905 65.3693 80.1802 65.3396 78.8728 65.3396C77.6842 65.3396 76.763 65.3693 76.1093 65.4287V64.8344C76.8027 64.7948 77.3177 64.6958 77.6545 64.5373C77.9912 64.359 78.219 64.0817 78.3379 63.7053C78.4568 63.3091 78.5162 62.7346 78.5162 61.9819V47.5407C78.5162 46.7879 78.4568 46.2432 78.3379 45.9064C78.219 45.5697 77.9912 45.3419 77.6545 45.223C77.3375 45.1041 76.8225 45.0249 76.1093 44.9853V44.391C76.763 44.4504 77.6842 44.4801 78.8728 44.4801C79.9029 44.4801 80.7448 44.4504 81.3985 44.391L87.9356 61.5956L94.3242 44.4801H95.7208C97.3253 44.4801 98.5832 44.4504 99.4945 44.391V44.9853ZM117.088 62.9327C117.623 64.1609 118.306 64.7948 119.138 64.8344V65.4287C118.346 65.3693 117.286 65.3396 115.959 65.3396C114.255 65.3396 112.988 65.3693 112.156 65.4287V64.8344C112.888 64.7948 113.423 64.6958 113.76 64.5373C114.117 64.3788 114.295 64.1114 114.295 63.735C114.295 63.418 114.156 62.9525 113.879 62.3384L112.364 58.951H105.143L104.133 61.1796C103.796 61.9521 103.628 62.586 103.628 63.0813C103.628 63.5963 103.806 64.0024 104.162 64.2996C104.539 64.5769 105.133 64.7552 105.945 64.8344V65.4287C105.351 65.3693 104.45 65.3396 103.241 65.3396C102.033 65.3396 101.171 65.3693 100.656 65.4287V64.8344C101.191 64.6958 101.647 64.3986 102.023 63.943C102.399 63.4676 102.756 62.8436 103.093 62.071L109.66 47.2139H110.135L117.088 62.9327ZM112.126 58.3567L108.768 50.8093L105.381 58.3567H112.126ZM143.094 47.9567C142.381 47.9963 141.856 48.0756 141.52 48.1944C141.203 48.3133 140.985 48.5411 140.866 48.8779C140.747 49.2146 140.688 49.7594 140.688 50.5121V62.279C140.688 63.0318 140.747 63.5765 140.866 63.9133C140.985 64.25 141.203 64.4779 141.52 64.5967C141.856 64.7156 142.381 64.7948 143.094 64.8344V65.4287C142.183 65.3693 140.925 65.3396 139.321 65.3396C137.617 65.3396 136.349 65.3693 135.517 65.4287V64.8344C136.23 64.7948 136.745 64.7156 137.062 64.5967C137.399 64.4779 137.627 64.25 137.746 63.9133C137.865 63.5765 137.924 63.0318 137.924 62.279V49.2344L130.763 65.5773H130.288L123.394 49.2641V61.9819C123.394 62.7544 123.453 63.3289 123.572 63.7053C123.711 64.0817 123.968 64.359 124.345 64.5373C124.721 64.6958 125.305 64.7948 126.098 64.8344V65.4287C125.385 65.3693 124.374 65.3396 123.067 65.3396C121.878 65.3396 120.957 65.3693 120.304 65.4287V64.8344C120.997 64.7948 121.512 64.6958 121.849 64.5373C122.185 64.359 122.413 64.0817 122.532 63.7053C122.651 63.3091 122.71 62.7346 122.71 61.9819V50.5121C122.71 49.7594 122.651 49.2146 122.532 48.8779C122.413 48.5411 122.185 48.3133 121.849 48.1944C121.532 48.0756 121.017 47.9963 120.304 47.9567V47.3624C120.957 47.4219 121.878 47.4516 123.067 47.4516C124.018 47.4516 124.86 47.4219 125.593 47.3624L131.565 61.8333L137.924 47.4516H139.321C140.925 47.4516 142.183 47.4219 143.094 47.3624V47.9567ZM160.673 62.9327C161.208 64.1609 161.891 64.7948 162.723 64.8344V65.4287C161.931 65.3693 160.871 65.3396 159.544 65.3396C157.84 65.3396 156.572 65.3693 155.74 65.4287V64.8344C156.473 64.7948 157.008 64.6958 157.345 64.5373C157.702 64.3788 157.88 64.1114 157.88 63.735C157.88 63.418 157.741 62.9525 157.464 62.3384L155.948 58.951H148.728L147.718 61.1796C147.381 61.9521 147.212 62.586 147.212 63.0813C147.212 63.5963 147.391 64.0024 147.747 64.2996C148.124 64.5769 148.718 64.7552 149.53 64.8344V65.4287C148.936 65.3693 148.034 65.3396 146.826 65.3396C145.618 65.3396 144.756 65.3693 144.241 65.4287V64.8344C144.776 64.6958 145.231 64.3986 145.608 63.943C145.984 63.4676 146.341 62.8436 146.678 62.071L153.244 47.2139H153.72L160.673 62.9327ZM155.711 58.3567L152.353 50.8093L148.966 58.3567H155.711ZM181.955 47.9567C181.261 47.9963 180.746 48.1053 180.409 48.2836C180.073 48.442 179.845 48.7194 179.726 49.1156C179.607 49.4919 179.548 50.0565 179.548 50.8093V65.5773H178.864L166.979 49.1156V61.9819C166.979 62.7544 167.038 63.3289 167.157 63.7053C167.296 64.0817 167.553 64.359 167.929 64.5373C168.306 64.6958 168.89 64.7948 169.683 64.8344V65.4287C168.969 65.3693 167.959 65.3396 166.652 65.3396C165.463 65.3396 164.542 65.3693 163.888 65.4287V64.8344C164.582 64.7948 165.097 64.6958 165.433 64.5373C165.77 64.359 165.998 64.0817 166.117 63.7053C166.236 63.3091 166.295 62.7346 166.295 61.9819V50.5121C166.295 49.7594 166.236 49.2146 166.117 48.8779C165.998 48.5411 165.77 48.3133 165.433 48.1944C165.117 48.0756 164.601 47.9963 163.888 47.9567V47.3624C164.542 47.4219 165.463 47.4516 166.652 47.4516C167.721 47.4516 168.633 47.4219 169.385 47.3624L178.864 60.5556V50.8093C178.864 50.0367 178.795 49.4622 178.656 49.0859C178.537 48.7095 178.29 48.442 177.913 48.2836C177.537 48.1053 176.953 47.9963 176.16 47.9567V47.3624C176.873 47.4219 177.884 47.4516 179.191 47.4516C180.38 47.4516 181.301 47.4219 181.955 47.3624V47.9567Z" fill="#ECDBC2"/>
</svg>
