<svg width="58" height="52" viewBox="0 0 58 52" fill="none" xmlns="http://www.w3.org/2000/svg">
<path d="M11.88 2.71998C11.88 2.71998 12.5766 1.04828 14.6483 1.32328C16.72 1.59828 30.76 3.97828 37.4416 7.07998C44.125 10.18 51.6566 13.845 56.3716 19.3867C57.6216 20.8583 57.1133 21.935 57.1133 21.935L55.3866 34.3317C55.3866 34.3317 54.8866 36.8133 52.4916 37.475L3.17829 51.065C3.17829 51.065 0.666626 51.6383 0.666626 49.0533V36.11C0.666626 36.11 0.919956 34.555 1.53496 32.735C2.14829 30.91 11.88 2.71998 11.88 2.71998Z" fill="#F4900C"/>
<path d="M50.015 31.745C42.6017 24.6483 25 16.38 11.9584 15.1367C11.7765 15.1204 11.5944 15.1656 11.4412 15.265C11.2881 15.3644 11.1726 15.5123 11.1134 15.685C11.1134 15.685 0.650024 46.7017 0.650024 47.215C0.650024 47.465 0.766694 47.7033 0.961694 47.8583C1.05997 47.933 1.1736 47.9848 1.29437 48.0102C1.41513 48.0356 1.54003 48.0338 1.66002 48.005L50.6917 34.48C51.0017 34.4 51.1567 34.2233 51.2117 33.9067C51.3134 33.3533 51.085 32.7667 50.015 31.745Z" fill="#A0041E"/>
<path d="M51.205 33.965L0.666626 47.5483V35.695C0.666626 35.695 9.5516 15.7367 11.3283 3.60327C39.2383 7.63327 52.5816 22.13 52.5816 22.13L51.205 33.965Z" fill="#A0041E"/>
<path d="M12.6468 40.0533C12.6472 40.6165 12.5366 41.1743 12.3212 41.6947C12.1058 42.2151 11.7899 42.6879 11.3916 43.086C10.9933 43.4842 10.5204 43.7999 9.9999 44.0151C9.4794 44.2302 8.92162 44.3407 8.35842 44.34C7.22131 44.34 6.13076 43.8883 5.3267 43.0842C4.52264 42.2802 4.07092 41.1896 4.07092 40.0525C4.07092 38.9154 4.52264 37.8248 5.3267 37.0208C6.13076 36.2167 7.22131 35.765 8.35842 35.765C8.92176 35.7643 9.4797 35.8748 10.0003 36.0901C10.5209 36.3054 10.9939 36.6212 11.3922 37.0196C11.7905 37.4179 12.1064 37.8909 12.3217 38.4115C12.5369 38.9321 12.6474 39.49 12.6468 40.0533ZM20.9801 33.3867C20.9805 33.9499 20.8699 34.5076 20.6545 35.028C20.4391 35.5484 20.1233 36.0212 19.7249 36.4194C19.3266 36.8175 18.8537 37.1332 18.3332 37.3484C17.8128 37.5636 17.255 37.674 16.6918 37.6733C16.1287 37.6733 15.5712 37.5624 15.051 37.347C14.5308 37.1315 14.0582 36.8157 13.66 36.4176C13.2619 36.0194 12.9461 35.5468 12.7306 35.0266C12.5152 34.5064 12.4043 33.9489 12.4043 33.3858C12.4043 32.8228 12.5152 32.2653 12.7306 31.7451C12.9461 31.2249 13.2619 30.7522 13.66 30.3541C14.0582 29.956 14.5308 29.6402 15.051 29.4247C15.5712 29.2092 16.1287 29.0983 16.6918 29.0983C17.2551 29.0977 17.813 29.2081 18.3336 29.4234C18.8542 29.6387 19.3272 29.9545 19.7255 30.3529C20.1239 30.7512 20.4397 31.2242 20.655 31.7448C20.8703 32.2654 20.9807 32.8233 20.9801 33.3867ZM30.9801 35.0533C30.9805 35.6165 30.8699 36.1743 30.6545 36.6947C30.4391 37.2151 30.1233 37.6879 29.7249 38.086C29.3266 38.4842 28.8537 38.7999 28.3332 39.0151C27.8128 39.2302 27.255 39.3407 26.6918 39.34C25.5546 39.34 24.4641 38.8883 23.66 38.0842C22.856 37.2802 22.4043 36.1896 22.4043 35.0525C22.4043 33.9154 22.856 32.8248 23.66 32.0208C24.4641 31.2167 25.5546 30.765 26.6918 30.765C27.2551 30.7643 27.813 30.8748 28.3336 31.0901C28.8542 31.3054 29.3272 31.6212 29.7255 32.0196C30.1239 32.4179 30.4397 32.8909 30.655 33.4115C30.8703 33.9321 30.9807 34.49 30.9801 35.0533ZM39.3134 28.3867C39.3139 28.9499 39.2032 29.5076 38.9879 30.028C38.7725 30.5484 38.4566 31.0212 38.0583 31.4194C37.66 31.8175 37.187 32.1332 36.6666 32.3484C36.1461 32.5636 35.5883 32.674 35.0251 32.6733C33.888 32.6733 32.7974 32.2216 31.9934 31.4176C31.1893 30.6135 30.7376 29.5229 30.7376 28.3858C30.7376 27.2487 31.1893 26.1582 31.9934 25.3541C32.7974 24.55 33.888 24.0983 35.0251 24.0983C35.5884 24.0977 36.1464 24.2081 36.6669 24.4234C37.1875 24.6387 37.6605 24.9545 38.0589 25.3529C38.4572 25.7512 38.7731 26.2242 38.9883 26.7448C39.2036 27.2654 39.3141 27.8233 39.3134 28.3867ZM49.3134 30.0533C49.3139 30.6165 49.2032 31.1743 48.9879 31.6947C48.7725 32.2151 48.4566 32.6879 48.0583 33.086C47.66 33.4842 47.187 33.7999 46.6666 34.0151C46.1461 34.2302 45.5883 34.3407 45.0251 34.34C43.888 34.34 42.7974 33.8883 41.9934 33.0842C41.1893 32.2802 40.7376 31.1896 40.7376 30.0525C40.7376 28.9154 41.1893 27.8248 41.9934 27.0208C42.7974 26.2167 43.888 25.765 45.0251 25.765C45.5884 25.7643 46.1464 25.8748 46.6669 26.0901C47.1875 26.3054 47.6605 26.6212 48.0589 27.0196C48.4572 27.4179 48.7731 27.8909 48.9883 28.4115C49.2036 28.9321 49.3141 29.49 49.3134 30.0533Z" fill="#BE1931"/>
<path d="M52.4933 19.9967C45.0783 12.9 25.0017 4.71332 11.9583 3.47002C11.7765 3.45382 11.5944 3.49902 11.4412 3.59842C11.2881 3.69782 11.1726 3.84562 11.1133 4.01832C11.1133 4.01832 2.81001 27.0633 0.791684 33.3867C0.500014 34.3 0.650014 35.4833 0.650014 35.5483C0.650014 35.7983 0.766684 36.0367 0.961684 36.1917C1.05996 36.2663 1.17359 36.3182 1.29435 36.3435C1.41512 36.3689 1.54002 36.3671 1.66001 36.3383L52.9883 23.4267C53.1397 23.3872 53.2765 23.3052 53.3826 23.1902C53.4887 23.0753 53.5595 22.9323 53.5867 22.7783C53.6867 22.2267 53.5617 21.02 52.4933 19.9967Z" fill="#F4900C"/>
<path d="M52.4934 19.9967C45.0784 12.9 25.0017 4.71332 11.9584 3.47002C11.7765 3.45382 11.5944 3.49902 11.4412 3.59842C11.2881 3.69782 11.1726 3.84562 11.1134 4.01832C11.1134 4.01832 0.650024 33.3683 0.650024 33.8817C0.650024 34.1317 0.766694 34.37 0.961694 34.525C1.05997 34.5996 1.1736 34.6515 1.29437 34.6769C1.41513 34.7022 1.54003 34.7004 1.66002 34.6717L51.9834 21.7733C52.1347 21.7339 52.2715 21.6518 52.3776 21.5369C52.4837 21.422 52.5545 21.279 52.5817 21.125C52.6817 20.5733 53.5617 21.02 52.4934 19.9967Z" fill="#F4900C"/>
<path d="M15.0833 31.2317L12.0283 27.1383L19.4583 26.26L21.8516 29.4967L31.1583 27.1117L29.6216 25.0583L36.6516 24.2267L37.6033 25.5133L46.8883 23.0867L46.8399 23.0217L47.3816 22.9583L53.4033 21.385C53.2125 20.858 52.9009 20.383 52.4933 19.9983C51.4733 19.0217 50.1933 18.025 48.7449 17.0267L42.7966 17.6183L39.5616 13.2933L41.9216 13.015C36.1966 10.08 29.3699 7.41332 22.8966 5.62332L25.2916 8.86332L18.0449 9.58332L15.2616 5.86002L21.1399 5.16502C17.8883 4.33832 14.7566 3.73672 11.9583 3.47002C11.7764 3.45382 11.5943 3.49902 11.4411 3.59842C11.288 3.69782 11.1725 3.84562 11.1133 4.01832C11.1133 4.01832 8.81992 9.99502 6.49992 16.92L12.2549 16.52L15.1033 20.3717L7.53825 21.1233L5.83492 18.8917C4.63325 22.4817 3.22159 26.1617 2.25159 29.0983L5.79159 33.6133L15.0833 31.2317ZM29.4499 14.4867L32.5199 18.6383L25.3516 19.3517L22.3416 15.3267L29.4499 14.4867Z" fill="#FFCC4D"/>
<path d="M17.1033 26.645C18.4483 26.2817 21.1366 24.5833 23.7916 24.2183C26.4483 23.8533 29.6766 25.2467 30.6383 25.1333L34.4933 24.6783C35.3533 24.5767 39.2083 22.4483 41.4483 22.135C43.6883 21.8217 46.69 23.405 47.7666 23.1083C47.7666 23.1083 48.9633 23.4467 47.7666 23.5983C46.57 23.75 43.4316 22.5233 41.69 22.8117C39.1866 23.2283 37.4016 24.665 34.4933 25.1333C32.74 25.415 31.5066 25.645 30.4583 25.7283C28.5183 25.885 26.125 24.43 23.6766 24.8467C21.2283 25.2633 19.885 26.9183 17.1016 27.1867C15.4533 27.3467 16.075 26.9233 17.1033 26.645ZM9.9033 31.58C11.8933 31.1167 14.1866 30.3433 15.0833 31.23L10.5983 32.95L5.79164 33.6117C5.78997 33.6133 5.94497 32.5017 9.9033 31.58ZM26.3266 27.3267C28.8083 26.7333 30.4333 26.6183 31.1566 27.1117L26.6233 28.82L21.85 29.4967C21.85 29.4967 22.2633 28.2983 26.3266 27.3267Z" fill="#F4900C"/>
<path d="M41.8468 23.4716C43.6501 22.9766 45.9784 22.7416 46.5684 22.8816C46.5684 22.8816 51.3301 21.6466 53.2201 21.4299C53.2201 21.4299 48.8801 22.9149 47.5334 23.2632C46.1868 23.6099 37.6984 25.9566 37.6018 25.5132C37.5051 25.0699 39.0701 24.2366 41.8468 23.4716Z" fill="#F4900C"/>
<path d="M2.2501 29.0982C2.2501 29.0982 2.1251 27.1032 3.51344 23.4999C4.90177 19.8966 5.51344 18.4716 5.83344 18.8916C6.15344 19.3116 4.90177 23.8899 4.4151 24.9999C3.92844 26.1099 3.15344 28.3999 2.78344 28.8532C2.4151 29.3082 2.2501 29.0982 2.2501 29.0982ZM6.5001 16.9182C6.5001 16.9182 6.60344 14.3749 7.22844 12.6032C7.85344 10.8316 8.9751 9.79993 9.1251 9.38493C9.2751 8.96993 9.2418 6.87323 9.6584 5.90163C10.0751 4.92993 10.9218 3.04993 11.9568 3.46823C12.9918 3.88663 9.6318 10.6599 9.2301 12.0132C8.82677 13.3682 6.5001 16.9182 6.5001 16.9182Z" fill="#FFCC4D"/>
<path d="M10.4367 16.645C11.7817 16.2817 14.4683 14.5833 17.125 14.2183C19.7817 13.8533 23.01 15.2467 23.9717 15.1333L27.8267 14.6783C28.6867 14.5767 32.5417 12.4483 34.7817 12.135C37.0217 11.8217 40.0233 13.405 41.1 13.1083C41.1 13.1083 42.2967 13.4467 41.1 13.5983C39.9033 13.75 36.765 12.5233 35.0233 12.8117C32.52 13.2283 30.735 14.6667 27.8267 15.1333C26.0733 15.415 24.84 15.6449 23.7917 15.7282C21.8517 15.8849 19.4583 14.4299 17.01 14.8467C14.5617 15.2633 13.2183 16.9183 10.435 17.1867C8.78666 17.3467 9.4083 16.9233 10.4367 16.645ZM13.7467 26.9333C12.4817 27.0833 10.7317 25.6417 7.57499 26.205C4.41666 26.77 2.24999 29.0983 2.24999 29.0983L2.45333 30.0533C2.45333 30.0533 1.65333 29.4917 2.76499 29.1467C3.87666 28.8017 5.04166 27.0933 7.74999 26.8017C10.4583 26.51 11.3433 27.4483 13.1667 27.5C14.99 27.5517 13.7467 26.9333 13.7467 26.9333ZM45.6667 22.8917L48.2983 23.045L49 22.5L48.5317 23.9833L46.3433 24.6583L45.6667 22.8917ZM10.875 5.36495C13.3233 4.68825 14.9183 5.90165 16.69 5.69165C18.4617 5.48165 18.4867 5.96995 17.125 6.24995C15.7633 6.52995 12.3583 5.34165 10.9483 5.80165C9.5383 6.26165 9.3067 7.71825 9.3067 7.71825L9.54 6.26165C9.54 6.26165 9.2683 5.80825 10.875 5.36495ZM14.16 20.4633C17.5933 19.9132 17.8333 19.0517 20.4067 18.54C22.75 18.0733 24.2083 19.1783 25.525 19.1783C27.665 19.1783 27.0117 17.8717 26.2917 18.1783C24.7817 18.8217 21.735 16.9917 18.74 18.1783C17.2117 18.7833 16.5083 19.62 14.16 19.915C11.8133 20.2083 12.93 20.6616 14.16 20.4633ZM31.4467 18.745C32.88 18.6033 35.0933 17.2749 37.28 16.9199C39.4667 16.5632 41.425 17.7533 42.795 17.6183C44.165 17.4833 44.445 16.7449 43.375 16.8532C42.305 16.9616 39.5733 15.7833 36.9167 16.3033C34.26 16.8232 33.2183 17.9183 31.4467 18.1783C29.6767 18.4367 30.3733 18.8517 31.4467 18.745ZM4.43666 21.1533C5.62833 20.84 6.86833 21.5467 8.16833 21.06C9.4683 20.5733 9.555 20 8.35833 20.3133C7.16166 20.6267 5.77333 20.0883 4.70499 20.5133L4.43666 21.1533ZM13.2183 9.11495C15.4767 9.01325 16.725 9.71165 18.33 9.55165C19.9333 9.39165 19.2617 8.98325 18.09 9.04825C16.9183 9.11325 15.22 8.33325 12.7867 8.80165C10.3533 9.26995 10.475 9.75495 8.59166 10.1633L8.16666 10.7633C8.16666 10.7633 9.0167 10.5883 9.9717 10.1633C10.9267 9.73995 11.9717 9.16995 13.2183 9.11495ZM24.9367 8.89495C26.415 8.80665 27.6583 7.71825 29.24 7.60995L28.3217 7.29325C28.3217 7.29325 26.445 8.27325 24.935 8.38165C23.4267 8.48995 23.3733 8.98825 24.9367 8.89495Z" fill="#F4900C"/>
</svg>
