<svg width="32" height="32" viewBox="0 0 32 32" fill="none" xmlns="http://www.w3.org/2000/svg">
<path d="M24.472 16.4719L17.8053 23.1386C17.6801 23.2638 17.5104 23.3341 17.3333 23.3341C17.1563 23.3341 16.9865 23.2638 16.8613 23.1386C16.7361 23.0134 16.6658 22.8436 16.6658 22.6666C16.6658 22.4896 16.7361 22.3198 16.8613 22.1946L22.3907 16.6666H7.99999C7.82318 16.6666 7.65361 16.5964 7.52858 16.4714C7.40356 16.3463 7.33332 16.1768 7.33332 15.9999C7.33332 15.8231 7.40356 15.6536 7.52858 15.5285C7.65361 15.4035 7.82318 15.3333 7.99999 15.3333H22.3907L16.8613 9.80528C16.7361 9.6801 16.6658 9.51031 16.6658 9.33328C16.6658 9.15625 16.7361 8.98646 16.8613 8.86128C16.9865 8.7361 17.1563 8.66577 17.3333 8.66577C17.5104 8.66577 17.6801 8.7361 17.8053 8.86128L24.472 15.5279C24.5341 15.5899 24.5833 15.6634 24.6169 15.7444C24.6505 15.8254 24.6678 15.9123 24.6678 15.9999C24.6678 16.0876 24.6505 16.1745 24.6169 16.2555C24.5833 16.3365 24.5341 16.41 24.472 16.4719Z" fill="#1B1B1B"/>
</svg>
