<svg width="24" height="24" viewBox="0 0 24 24" fill="none" xmlns="http://www.w3.org/2000/svg">
<path fill-rule="evenodd" clip-rule="evenodd" d="M19.839 4.2821C20.629 5.0731 21.019 5.9931 20.999 7.0021C20.982 7.9631 20.594 8.8961 20.061 9.7661C19.351 10.9281 18.266 12.1541 17.053 13.4111L16.381 14.1001L15.691 14.7941L14.421 16.0621L13.681 16.7921C12.329 18.1091 11.011 19.2991 9.76597 20.0611C8.89597 20.5941 7.96297 20.9811 7.00197 21.0001C5.99297 21.0201 5.07297 20.6301 4.28197 19.8391C3.09497 18.6521 2.58597 16.4951 2.88497 14.1941C3.17797 11.9381 4.25597 9.3911 6.44997 7.0741L6.77297 6.7421C9.16997 4.3521 11.84 3.1911 14.193 2.8851C16.494 2.5861 18.652 3.0951 19.839 4.2821ZM18.425 5.6971C17.844 5.1161 16.417 4.6131 14.451 4.8681C14.0196 4.92343 13.573 5.0171 13.111 5.1491C13.371 5.4491 13.711 5.6641 14.145 5.8091C14.2711 5.84935 14.3881 5.91426 14.4889 6.00007C14.5898 6.08587 14.6727 6.19086 14.7326 6.30894C14.7926 6.42702 14.8285 6.55584 14.8383 6.68791C14.8481 6.81999 14.8315 6.95269 14.7896 7.07832C14.7477 7.20394 14.6812 7.31999 14.5941 7.41973C14.507 7.51946 14.4009 7.60089 14.282 7.6593C14.1632 7.7177 14.0339 7.75191 13.9017 7.75995C13.7695 7.76798 13.637 7.74968 13.512 7.7061C12.502 7.3701 11.724 6.7641 11.204 5.9171C10.2939 6.39468 9.44902 6.9872 8.68997 7.6801C8.84897 7.9171 9.06197 8.1801 9.31997 8.4381C9.74397 8.86109 10.178 9.16409 10.496 9.3011L10.609 9.3451C10.8607 9.4289 11.0688 9.60926 11.1875 9.8465C11.3062 10.0837 11.3258 10.3584 11.242 10.6101C11.1582 10.8618 10.9778 11.0699 10.7406 11.1886C10.5033 11.3073 10.2287 11.3269 9.97697 11.2431C9.23897 10.9971 8.49097 10.4361 7.90697 9.8521C7.68603 9.62982 7.47834 9.39474 7.28497 9.1481C6.64855 9.91574 6.11288 10.7616 5.69097 11.6651C5.96197 12.2691 6.40697 12.6591 7.07397 12.8811C7.32225 12.9676 7.52647 13.1484 7.64242 13.3844C7.75836 13.6204 7.77671 13.8925 7.69349 14.1419C7.61027 14.3913 7.43217 14.5979 7.19775 14.717C6.96334 14.8361 6.69146 14.858 6.44097 14.7781C5.8943 14.6018 5.38743 14.3202 4.94897 13.9491C4.91631 14.1191 4.88964 14.2868 4.86897 14.4521C4.61297 16.4191 5.11597 17.8451 5.69697 18.4261C6.14297 18.8721 6.55297 19.0091 6.96397 19.0011C7.42197 18.9921 7.99697 18.8001 8.72197 18.3561C9.67397 17.7741 10.71 16.8711 11.855 15.7761L12.49 15.1591L13.485 14.1721L14.837 12.8171L15.471 12.1711C16.704 10.9011 17.72 9.7611 18.355 8.72309C18.799 7.9981 18.991 7.4231 19 6.9651C19.008 6.5551 18.871 6.1441 18.425 5.6971Z" fill="#FDF9F3"/>
</svg>
