<svg width="36" height="36" viewBox="0 0 36 36" fill="none" xmlns="http://www.w3.org/2000/svg">
<path fill-rule="evenodd" clip-rule="evenodd" d="M29.625 18C29.625 17.7016 29.5065 17.4155 29.2955 17.2045C29.0845 16.9935 28.7984 16.875 28.5 16.875H7.5C7.20163 16.875 6.91548 16.9935 6.7045 17.2045C6.49353 17.4155 6.375 17.7016 6.375 18C6.375 18.2984 6.49353 18.5845 6.7045 18.7955C6.91548 19.0065 7.20163 19.125 7.5 19.125H28.5C28.7984 19.125 29.0845 19.0065 29.2955 18.7955C29.5065 18.5845 29.625 18.2984 29.625 18ZM29.625 10.5C29.625 10.2016 29.5065 9.91548 29.2955 9.7045C29.0845 9.49353 28.7984 9.375 28.5 9.375H7.5C7.20163 9.375 6.91548 9.49353 6.7045 9.7045C6.49353 9.91548 6.375 10.2016 6.375 10.5C6.375 10.7984 6.49353 11.0845 6.7045 11.2955C6.91548 11.5065 7.20163 11.625 7.5 11.625H28.5C28.7984 11.625 29.0845 11.5065 29.2955 11.2955C29.5065 11.0845 29.625 10.7984 29.625 10.5ZM29.625 25.5C29.625 25.2016 29.5065 24.9155 29.2955 24.7045C29.0845 24.4935 28.7984 24.375 28.5 24.375H7.5C7.20163 24.375 6.91548 24.4935 6.7045 24.7045C6.49353 24.9155 6.375 25.2016 6.375 25.5C6.375 25.7984 6.49353 26.0845 6.7045 26.2955C6.91548 26.5065 7.20163 26.625 7.5 26.625H28.5C28.7984 26.625 29.0845 26.5065 29.2955 26.2955C29.5065 26.0845 29.625 25.7984 29.625 25.5Z" fill="black"/>
</svg>
