<svg width="24" height="24" viewBox="0 0 24 24" fill="none" xmlns="http://www.w3.org/2000/svg">
<path d="M12 21.9999C10.6167 21.9999 9.31667 21.7372 8.1 21.2119C6.88333 20.6865 5.825 19.9742 4.925 19.0749C4.025 18.1755 3.31267 17.1172 2.788 15.8999C2.26333 14.6825 2.00067 13.3825 2 11.9999C2 10.7499 2.24167 9.52485 2.725 8.32485C3.20833 7.12485 3.88333 6.05385 4.75 5.11185C5.61667 4.16985 6.65833 3.41152 7.875 2.83685C9.09167 2.26219 10.425 1.97485 11.875 1.97485C12.225 1.97485 12.5833 1.99152 12.95 2.02485C13.3167 2.05819 13.6917 2.11652 14.075 2.19985C13.925 2.94985 13.975 3.65819 14.225 4.32485C14.475 4.99152 14.85 5.54552 15.35 5.98685C15.85 6.42819 16.446 6.73252 17.138 6.89985C17.83 7.06719 18.5423 7.02552 19.275 6.77485C18.8417 7.75819 18.9043 8.69985 19.463 9.59985C20.0217 10.4999 20.8507 10.9665 21.95 10.9999C21.9667 11.1832 21.9793 11.3539 21.988 11.5119C21.9967 11.6699 22.0007 11.8409 22 12.0249C22 13.3915 21.7373 14.6789 21.212 15.8869C20.6867 17.0949 19.9743 18.1532 19.075 19.0619C18.1757 19.9705 17.1173 20.6872 15.9 21.2119C14.6827 21.7365 13.3827 21.9992 12 21.9999ZM10.5 9.99985C10.9167 9.99985 11.271 9.85419 11.563 9.56285C11.855 9.27152 12.0007 8.91719 12 8.49985C11.9993 8.08252 11.8537 7.72852 11.563 7.43785C11.2723 7.14719 10.918 7.00119 10.5 6.99985C10.082 6.99852 9.728 7.14452 9.438 7.43785C9.148 7.73119 9.002 8.08519 9 8.49985C8.998 8.91452 9.144 9.26885 9.438 9.56285C9.732 9.85685 10.086 10.0025 10.5 9.99985ZM8.5 14.9999C8.91667 14.9999 9.271 14.8542 9.563 14.5629C9.855 14.2715 10.0007 13.9172 10 13.4999C9.99933 13.0825 9.85367 12.7285 9.563 12.4379C9.27233 12.1472 8.918 12.0012 8.5 11.9999C8.082 11.9985 7.728 12.1445 7.438 12.4379C7.148 12.7312 7.002 13.0852 7 13.4999C6.998 13.9145 7.144 14.2689 7.438 14.5629C7.732 14.8569 8.086 15.0025 8.5 14.9999ZM15 15.9999C15.2833 15.9999 15.521 15.9039 15.713 15.7119C15.905 15.5199 16.0007 15.2825 16 14.9999C15.9993 14.7172 15.9033 14.4799 15.712 14.2879C15.5207 14.0959 15.2833 13.9999 15 13.9999C14.7167 13.9999 14.4793 14.0959 14.288 14.2879C14.0967 14.4799 14.0007 14.7172 14 14.9999C13.9993 15.2825 14.0953 15.5202 14.288 15.7129C14.4807 15.9055 14.718 16.0012 15 15.9999ZM12 19.9999C14.0333 19.9999 15.8377 19.2999 17.413 17.8999C18.9883 16.4999 19.8507 14.7165 20 12.5499C19.1667 12.1832 18.5123 11.6832 18.037 11.0499C17.5617 10.4165 17.241 9.70819 17.075 8.92485C15.7917 8.74152 14.6917 8.19152 13.775 7.27485C12.8583 6.35819 12.2917 5.25819 12.075 3.97485C10.7417 3.94152 9.571 4.18319 8.563 4.69985C7.555 5.21652 6.713 5.87919 6.037 6.68785C5.361 7.49652 4.85267 8.37552 4.512 9.32485C4.17133 10.2742 4.00067 11.1659 4 11.9999C4 14.2165 4.77933 16.1042 6.338 17.6629C7.89667 19.2215 9.784 20.0005 12 19.9999Z" fill="#1B1B1B"/>
</svg>
