<svg width="22" height="22" viewBox="0 0 22 22" fill="none" xmlns="http://www.w3.org/2000/svg">
<path d="M8.25356 3.1313C7.72923 2.3888 7.00323 2.05422 6.23323 2.06247C5.50265 2.0698 4.79131 2.38238 4.19731 2.79855C3.59145 3.22509 3.07484 3.76599 2.67656 4.3908C2.30073 4.98572 2.0294 5.6888 2.06606 6.37538C2.24298 9.67813 4.10106 13.2073 6.71081 15.8189C9.31873 18.4277 12.8011 20.2409 16.3175 19.8944C17.0068 19.8265 17.6586 19.4755 18.1911 19.0281C18.742 18.5615 19.1921 17.9877 19.5139 17.3415C19.8256 16.7071 20.0116 15.9756 19.909 15.2634C19.8026 14.5209 19.3874 13.8572 18.6238 13.4172C18.4656 13.3254 18.3091 13.2307 18.1545 13.133C18.017 13.0478 17.8703 12.9552 17.6925 12.8489C17.3292 12.6249 16.946 12.4353 16.5476 12.2824C16.1378 12.133 15.6694 12.0349 15.1817 12.1018C14.6766 12.1715 14.2073 12.4098 13.8012 12.837C13.4886 13.167 13.0285 13.2696 12.3813 13.0826C11.7231 12.892 10.9825 12.419 10.339 11.7791C9.69548 11.1411 9.20873 10.395 9.00065 9.72121C8.79531 9.05388 8.88606 8.56346 9.2069 8.22521C9.64048 7.76871 9.87148 7.26088 9.92006 6.72372C9.96773 6.20122 9.83756 5.70988 9.65148 5.28088C9.37281 4.64013 8.89981 4.00305 8.52948 3.50622C8.43637 3.382 8.3447 3.25671 8.25448 3.13038" fill="white"/>
</svg>
