<svg width="32" height="32" viewBox="0 0 32 32" fill="none" xmlns="http://www.w3.org/2000/svg">
<path d="M29.482 8.62395L19.482 3.12395C19.3343 3.04272 19.1685 3.00012 19 3.00012C18.8315 3.00012 18.6657 3.04272 18.518 3.12395L8.51799 8.62395C8.36121 8.71028 8.23046 8.8371 8.1394 8.99118C8.04834 9.14527 8.00031 9.32097 8.00031 9.49995C8.00031 9.67893 8.04834 9.85463 8.1394 10.0087C8.23046 10.1628 8.36121 10.2896 8.51799 10.376L18 15.591V26.3099L14.964 24.6399L14 26.391L18.518 28.8759C18.6657 28.9572 18.8315 28.9998 19 28.9998C19.1685 28.9998 19.3343 28.9572 19.482 28.8759L29.482 23.3759C29.6388 23.2897 29.7696 23.1629 29.8608 23.0088C29.9519 22.8547 30 22.679 30 22.5V9.49995C30 9.32094 29.9519 9.14522 29.8608 8.99113C29.7696 8.83704 29.6388 8.71023 29.482 8.62395ZM19 5.14195L26.925 9.49995L19 13.858L11.075 9.49995L19 5.14195ZM28 21.909L20 26.309V15.59L28 11.19V21.909Z" fill="#1B1B1B"/>
<path d="M10 16H2V14H10V16ZM12 24H4V22H12V24ZM14 20H6V18H14V20Z" fill="#1B1B1B"/>
</svg>
