<svg width="24" height="25" viewBox="0 0 24 25" fill="none" xmlns="http://www.w3.org/2000/svg">
<path d="M12.0001 9.42475C10.2798 9.42475 8.87589 10.8287 8.87589 12.549C8.87589 14.2693 10.2798 15.6732 12.0001 15.6732C13.7204 15.6732 15.1243 14.2693 15.1243 12.549C15.1243 10.8287 13.7204 9.42475 12.0001 9.42475ZM21.3704 12.549C21.3704 11.2552 21.3821 9.97318 21.3095 8.68178C21.2368 7.18178 20.8946 5.85053 19.7978 4.75365C18.6986 3.65443 17.3696 3.31459 15.8696 3.24193C14.5759 3.16928 13.2939 3.18099 12.0025 3.18099C10.7087 3.18099 9.42667 3.16928 8.13527 3.24193C6.63527 3.31459 5.30402 3.65678 4.20714 4.75365C3.10792 5.85287 2.76808 7.18178 2.69542 8.68178C2.62277 9.97553 2.63449 11.2576 2.63449 12.549C2.63449 13.8404 2.62277 15.1247 2.69542 16.4162C2.76808 17.9162 3.11027 19.2474 4.20714 20.3443C5.30636 21.4435 6.63527 21.7833 8.13527 21.856C9.42902 21.9286 10.711 21.9169 12.0025 21.9169C13.2962 21.9169 14.5782 21.9286 15.8696 21.856C17.3696 21.7833 18.7009 21.4412 19.7978 20.3443C20.897 19.2451 21.2368 17.9162 21.3095 16.4162C21.3845 15.1247 21.3704 13.8427 21.3704 12.549ZM12.0001 17.356C9.33996 17.356 7.19308 15.2091 7.19308 12.549C7.19308 9.88881 9.33996 7.74193 12.0001 7.74193C14.6603 7.74193 16.8071 9.88881 16.8071 12.549C16.8071 15.2091 14.6603 17.356 12.0001 17.356ZM17.004 8.66771C16.3829 8.66771 15.8814 8.16615 15.8814 7.54506C15.8814 6.92396 16.3829 6.4224 17.004 6.4224C17.6251 6.4224 18.1267 6.92396 18.1267 7.54506C18.1269 7.69254 18.0979 7.83861 18.0416 7.9749C17.9852 8.11119 17.9026 8.23502 17.7983 8.33931C17.694 8.44359 17.5702 8.52628 17.4339 8.58263C17.2976 8.63899 17.1515 8.6679 17.004 8.66771Z" fill="white"/>
</svg>
