<svg width="24" height="36" viewBox="0 0 36 36" fill="none" xmlns="http://www.w3.org/2000/svg">
<path d="M11.064 30.0195C10.9361 29.9454 10.795 29.8973 10.6485 29.8778C10.5021 29.8583 10.3532 29.8678 10.2104 29.9058C10.0677 29.9438 9.93377 30.0096 9.81642 30.0994C9.69907 30.1892 9.60055 30.3012 9.52649 30.429C9.45242 30.5568 9.40426 30.698 9.38476 30.8445C9.36525 30.9909 9.37478 31.1398 9.41281 31.2826C9.45084 31.4253 9.51661 31.5592 9.60638 31.6766C9.69614 31.7939 9.80814 31.8924 9.93599 31.9665L11.064 30.0195ZM4.03349 26.0625C4.10447 26.1958 4.20156 26.3134 4.31897 26.4084C4.43639 26.5034 4.57172 26.5737 4.7169 26.6153C4.86209 26.6568 5.01416 26.6687 5.16404 26.6503C5.31392 26.6318 5.45855 26.5834 5.58931 26.5078C5.72006 26.4322 5.83427 26.3311 5.92512 26.2105C6.01597 26.0899 6.0816 25.9522 6.11811 25.8057C6.15461 25.6591 6.16124 25.5067 6.13759 25.3576C6.11395 25.2084 6.06052 25.0656 5.98049 24.9375L4.03349 26.0625ZM31.875 18C31.875 21.6799 30.4132 25.209 27.8111 27.8111C25.209 30.4132 21.6799 31.875 18 31.875V34.125C26.9055 34.125 34.125 26.9055 34.125 18H31.875ZM4.12499 18C4.12499 14.3201 5.58681 10.791 8.18888 8.18889C10.7909 5.58683 14.3201 4.125 18 4.125V1.875C9.09449 1.875 1.87499 9.0945 1.87499 18H4.12499ZM23.25 21.375C20.9625 21.375 18.7687 20.4663 17.1512 18.8488C15.5337 17.2313 14.625 15.0375 14.625 12.75H12.375C12.375 15.6342 13.5207 18.4003 15.5602 20.4398C17.5997 22.4792 20.3658 23.625 23.25 23.625V21.375ZM30.6375 17.2035C29.87 18.4765 28.7865 19.5295 27.4921 20.2604C26.1977 20.9913 24.7364 21.3752 23.25 21.375V23.625C25.1241 23.6256 26.9665 23.1418 28.5985 22.2206C30.2306 21.2995 31.5969 19.9722 32.565 18.3675L30.6375 17.2035ZM14.625 12.75C14.6248 11.2635 15.0087 9.80225 15.7396 8.50789C16.4705 7.21353 17.5235 6.13003 18.7965 5.3625L17.6325 3.4365C16.028 4.40443 14.7009 5.77051 13.7797 7.40229C12.8586 9.03407 12.3747 10.8762 12.375 12.75H14.625ZM18 4.125C17.9246 4.12355 17.8503 4.10716 17.7813 4.07678C17.7122 4.04639 17.65 4.00262 17.598 3.948C17.5347 3.88448 17.4919 3.80352 17.475 3.7155C17.469 3.669 17.472 3.534 17.6325 3.4365L18.7965 5.3625C19.551 4.9065 19.794 4.071 19.7055 3.414C19.6125 2.7315 19.0755 1.875 18 1.875V4.125ZM32.565 18.3675C32.466 18.528 32.331 18.531 32.2845 18.525C32.1965 18.5081 32.1155 18.4652 32.052 18.402C31.9974 18.35 31.9536 18.2877 31.9232 18.2187C31.8928 18.1497 31.8764 18.0754 31.875 18H34.125C34.125 16.9245 33.2685 16.3875 32.586 16.2945C31.929 16.206 31.0935 16.449 30.6375 17.2035L32.565 18.3675ZM18 31.875C15.5648 31.8793 13.1718 31.2391 11.064 30.0195L9.93599 31.9665C12.3865 33.3847 15.1687 34.1294 18 34.125V31.875ZM5.98049 24.9375C4.76058 22.8293 4.12041 20.4357 4.12499 18H1.87499C1.87088 20.8308 2.61556 23.6124 4.03349 26.0625L5.98049 24.9375Z" fill="white"/>
</svg>
