<svg width="24" height="24" viewBox="0 0 24 24" fill="none" xmlns="http://www.w3.org/2000/svg">
<path d="M7 2C5.5 4 8.5 5 7 7M12 2C10.5 4 13.5 5 12 7M17 2C15.5 4 18.5 5 17 7M21 16C21 16 19 11 12 11C5 11 3 16 3 16L4.7 21.1C4.9 21.6 5.4 22 6 22H18C18.5 22 19.1 21.6 19.3 21.1L21 16Z" stroke="#1B1B1B" stroke-width="2" stroke-linecap="round" stroke-linejoin="round"/>
<path d="M2 16C3.7 16 3.6 17 5.3 17C7 17 7 16 8.7 16C10.4 16 10.3 17 12 17C13.7 17 13.7 16 15.3 16C17 16 16.9 17 18.6 17C20.3 17 20.3 16 21.9 16M8.5 16L10 22M15.5 16L14 22" stroke="#1B1B1B" stroke-width="2" stroke-linecap="round" stroke-linejoin="round"/>
</svg>
