<svg width="28" height="30" viewBox="0 0 28 30" fill="none" xmlns="http://www.w3.org/2000/svg">
<path d="M3.5 30H24.5C25.2956 30 26.0587 29.6839 26.6213 29.1213C27.1839 28.5587 27.5 27.7957 27.5 27V10.5C27.5 10.1022 27.342 9.72065 27.0607 9.43934C26.7794 9.15804 26.3978 9 26 9H21.5V7.8345C21.5 3.921 18.6455 0.417003 14.75 0.0375027C13.7073 -0.0661291 12.6545 0.049654 11.6592 0.377403C10.664 0.705152 9.74836 1.23761 8.97128 1.94052C8.19419 2.64342 7.57285 3.50122 7.14724 4.4587C6.72162 5.4162 6.50114 6.45218 6.5 7.5V9H2C1.60218 9 1.22064 9.15804 0.93934 9.43934C0.658035 9.72065 0.5 10.1022 0.5 10.5V27C0.5 27.7957 0.81607 28.5587 1.37868 29.1213C1.94129 29.6839 2.70435 30 3.5 30ZM21.5 12V15H18.5V12H21.5ZM9.5 7.5C9.5 5.019 11.519 3 14 3C16.481 3 18.5 5.019 18.5 7.5V9H9.5V7.5ZM6.5 12H9.5V15H6.5V12Z" fill="#A0041E"/>
</svg>
