<svg width="22" height="22" viewBox="0 0 22 22" fill="none" xmlns="http://www.w3.org/2000/svg">
<g clip-path="url(#clip0_409_804)">
<path d="M12.2059 3.75568L12.1888 3.70274L12.2761 3.81549C12.351 3.89937 12.4129 3.8808 12.4658 3.81549C12.4658 3.81549 12.9285 3.28405 12.5662 2.6653C12.3668 2.25555 11.5803 1.28068 11.1664 0.975429C10.4184 0.500367 9.93582 0.865429 9.93582 0.865429C9.87601 0.910117 9.83201 0.975429 9.87601 1.03593L9.99288 1.15624C8.58144 1.4388 8.37382 2.53812 8.28169 3.02487L8.26657 3.1053L8.07682 4.4253C8.01632 4.88593 8.26657 5.13549 8.70657 5.13549H10.1421C10.6426 5.14237 11.6848 5.15543 12.2059 3.75568Z" fill="#1B1B1B"/>
<path d="M7.58598 3.00803L7.43267 4.07503L2.57342 8.5699L2.55279 8.58778C2.37877 8.74004 2.24829 8.93577 2.17467 9.15496C2.14557 9.23982 2.12485 9.32732 2.11279 9.41621V9.76684C2.29911 9.78196 2.51429 9.76684 2.74873 9.71459L18.124 5.30359C18.1751 5.2889 18.229 5.28629 18.2813 5.29596C18.3336 5.30562 18.383 5.32731 18.4255 5.3593C18.468 5.39129 18.5026 5.43271 18.5263 5.48031C18.5501 5.52791 18.5625 5.58038 18.5626 5.63359V8.96521C18.5627 9.03895 18.5391 9.11076 18.4953 9.17006C18.4515 9.22936 18.3898 9.273 18.3192 9.29453C15.3767 10.1814 3.67892 13.7062 3.39154 13.7839C3.06636 13.8733 2.34654 14.008 2.11279 13.9778V16.1331C2.32248 16.162 2.54042 16.1537 2.74873 16.098L18.1233 11.6465C18.1745 11.6316 18.2284 11.6289 18.2808 11.6385C18.3332 11.6482 18.3827 11.6698 18.4253 11.7018C18.4679 11.7338 18.5025 11.7753 18.5263 11.823C18.5502 11.8706 18.5626 11.9232 18.5626 11.9765V15.1747L19.081 15.0262L19.0858 15.0248L19.1147 15.0152C19.1431 15.006 19.183 14.9916 19.2343 14.9719C19.3599 14.9227 19.4817 14.8643 19.5987 14.7973C19.9094 14.6117 19.9376 14.4858 19.9376 14.47V5.51603C19.9376 5.36615 19.8757 5.10078 19.7128 4.84434C19.5602 4.60371 19.3436 4.40915 19.0597 4.31496L13.383 2.98396C13.358 2.75746 13.2864 2.5386 13.1726 2.34115C13.033 2.06546 12.758 1.68803 12.4927 1.36353L19.4007 2.98259L19.4474 2.99634C20.1115 3.20259 20.5784 3.64259 20.8733 4.10734C21.162 4.56109 21.3126 5.07946 21.3126 5.51603V14.47C21.3126 15.2813 20.6643 15.7625 20.2999 15.9791C20.0446 16.1291 19.7732 16.2498 19.4907 16.3387L19.4729 16.3442L19.4667 16.3455L19.4646 16.3462C19.4646 16.3462 19.3642 16.3751 19.4632 16.3462L2.68273 21.1628L2.65317 21.1704C2.16298 21.2873 1.60611 21.2563 1.19567 20.837C0.827855 20.4616 0.737793 19.926 0.737793 19.4482V9.38665L0.738481 9.34953V9.33921L0.740543 9.32409C0.744008 9.26269 0.751587 9.2016 0.763231 9.14121C0.782481 9.02984 0.816168 8.87928 0.875293 8.70671C1.02709 8.26042 1.29387 7.86203 1.64873 7.55171L8.10848 1.57734L8.06517 1.64128C7.75167 2.12665 7.65611 2.63334 7.60936 2.88153L7.60661 2.89803L7.58598 3.00803Z" fill="#1B1B1B"/>
</g>
<defs>
<clipPath id="clip0_409_804">
<rect width="22" height="22" fill="white"/>
</clipPath>
</defs>
</svg>
