<svg width="24" height="36" viewBox="0 0 36 36" fill="none" xmlns="http://www.w3.org/2000/svg">
<path d="M18 3V4.5M18 31.5V33M33 18H31.5M4.5 18H3M28.605 7.395L28.017 7.9845M7.983 28.017L7.3935 28.6065M28.605 28.605L28.017 28.0155M7.983 7.983L7.3935 7.3935M9.5115 15C8.83165 16.9246 8.82622 19.0232 9.4961 20.9513C10.166 22.8794 11.4714 24.5225 13.1981 25.6111C14.9248 26.6996 16.9702 27.1688 18.9987 26.9418C21.0272 26.7147 22.9183 25.8049 24.3616 24.3616C25.8049 22.9183 26.7147 21.0272 26.9418 18.9987C27.1688 16.9702 26.6996 14.9248 25.6111 13.1981C24.5225 11.4714 22.8794 10.166 20.9513 9.4961C19.0232 8.82622 16.9246 8.83165 15 9.5115" stroke="white" stroke-width="2.25" stroke-linecap="round"/>
</svg>
