<svg width="24" height="25" viewBox="0 0 24 25" fill="none" xmlns="http://www.w3.org/2000/svg">
<path d="M0 6.25023C0 5.89624 -6.70552e-08 5.71924 0.1095 5.60974C0.219 5.50024 0.396 5.50024 0.75 5.50024H23.25C23.604 5.50024 23.781 5.50024 23.8905 5.60974C24 5.71924 24 5.89624 24 6.25023V6.62823C24 6.76322 24 6.83222 23.979 6.89222C23.9609 6.94391 23.9317 6.99102 23.8935 7.03022C23.8485 7.07522 23.7885 7.10522 23.667 7.16672C22.6905 7.65421 22.203 7.89871 21.8475 8.2647C21.5438 8.57747 21.3119 8.95267 21.168 9.36419C21 9.84418 21 10.3902 21 11.4822V19C21 21.829 21 23.242 20.121 24.121C19.242 24.9999 17.829 24.9999 15 24.9999H9C6.171 24.9999 4.758 24.9999 3.879 24.121C3 23.242 3 21.829 3 19V11.4822C3 10.3902 3 9.84418 2.832 9.36419C2.68808 8.95267 2.4562 8.57747 2.1525 8.2647C1.797 7.89871 1.3095 7.65421 0.333 7.16672C0.251191 7.13262 0.174867 7.08663 0.1065 7.03022C0.0682657 6.99102 0.0390817 6.94391 0.0209999 6.89222C-9.22009e-08 6.83222 0 6.76322 0 6.62823V6.25023Z" fill="#A0041E" fill-opacity="0.25"/>
<path d="M9.10193 1.55523C9.27293 1.39623 9.64943 1.25523 10.1744 1.15473C10.777 1.04776 11.388 0.99605 11.9999 1.00024C12.6599 1.00024 13.3019 1.05423 13.8254 1.15473C14.3489 1.25523 14.7254 1.39623 14.8979 1.55673" stroke="#A0041E" stroke-width="0.958333" stroke-linecap="round"/>
<path d="M16.5 12.2502C16.5 11.836 16.1642 11.5002 15.75 11.5002C15.3358 11.5002 15 11.836 15 12.2502V19.7501C15 20.1643 15.3358 20.5001 15.75 20.5001C16.1642 20.5001 16.5 20.1643 16.5 19.7501V12.2502Z" fill="#A0041E"/>
<path d="M9 12.2502C9 11.836 8.66421 11.5002 8.25 11.5002C7.83579 11.5002 7.5 11.836 7.5 12.2502V19.7501C7.5 20.1643 7.83579 20.5001 8.25 20.5001C8.66421 20.5001 9 20.1643 9 19.7501V12.2502Z" fill="#A0041E"/>
</svg>
